<?xml version="1.0" standalone="no"?>
<svg xmlns="http://www.w3.org/2000/svg" viewBox="0 0 121.752 29" width="121.752" height="29"><g fill="#cca131" color="#cca131" transform="translate(0, 0) scale(0.29)"><svg width="100.0" height="100.0" x="0.0" y="0.0" viewBox="0 0 100 100"><title></title><desc></desc><g stroke="none" stroke-width="1" fill="none" fill-rule="evenodd"><path d="M32.8125326,50.4534149 C24.9187826,39.5766149 14.2100326,32.5567292 9.76878264,29.941872 C9.65378264,29.8752435 9.53628264,29.8224435 9.41628264,29.7847292 C8.48128264,29.4867863 7.43878264,30.0537577 7.23628264,31.0733006 C5.03003264,42.2819863 3.94378264,54.115472 6.41003264,65.3807292 C8.98003264,77.1149006 15.7012826,86.5271292 26.3400326,92.0032435 C20.5237826,83.3025577 16.6000326,74.2599292 14.0362826,64.1311292 C13.7300326,62.9192435 14.9912826,63.2662149 15.3487826,64.0293006 C19.1987826,72.3038149 23.7725326,79.5185577 29.8600326,86.3398149 C30.3125326,86.8464435 30.7825326,87.3304435 31.2537826,87.8031292 C28.8125326,79.7486149 26.9512826,67.3657577 31.6487826,53.5459863 C32.0025326,52.505072 32.3962826,51.475472 32.8125326,50.4534149 L32.8125326,50.4534149 Z M47.6550326,93.0567292 C56.9675326,90.3149006 65.7412826,84.8400435 72.5987826,77.9773006 C83.2125326,67.3582149 89.3887826,53.1399292 92.4325326,38.5646149 C94.5062826,28.6344435 95.3000326,18.3485006 94.7775326,8.21215774 C94.7250326,7.18255774 94.0337826,6.3893006 93.1525326,6.11021488 C92.6575326,5.95181488 92.1025326,5.95684345 91.5662826,6.17307203 C19.3425326,35.2847292 31.3762826,79.1904435 36.7187826,91.893872 C37.3962826,91.3067863 38.1412826,90.6279292 38.9600326,89.8736435 C41.3500326,87.5856435 43.6400326,85.1933006 45.8387826,82.7179863 C61.9450326,64.5899863 74.3300326,43.5127292 86.0525326,22.3638149 C86.2275326,22.0470149 86.6075326,21.9389006 86.9087826,22.1061006 C87.1937826,22.2657577 87.3062826,22.6177577 87.1762826,22.9119292 C82.9162826,32.608272 76.7387826,48.3917006 68.7825326,62.1825577 C59.1262826,78.9189006 47.8937826,92.9863292 47.6550326,93.0567292 L47.6550326,93.0567292 Z" fill="currentColor"></path></g></svg></g><line x1="41" y1="1" x2="41" y2="28" stroke="#0a1256" stroke-linecap="round"></line><path fill="#0a1256" fill-rule="nonzero" d="M11.95 18.38L0 18.38L0 17.23L1.39 17.02Q1.85 16.94 1.99 16.70Q2.14 16.46 2.14 15.79L2.14 15.79L2.14 4.08Q2.14 3.46 1.98 3.24Q1.82 3.02 1.34 2.95L1.34 2.95L0 2.74L0 1.58L11.11 1.58L12 5.50L10.75 5.90Q10.27 4.63 9.82 3.98Q9.36 3.34 8.69 3.11Q8.02 2.88 6.84 2.88L6.84 2.88L4.51 2.88L4.51 9.10L6.60 9.10Q7.46 9.10 7.86 8.99Q8.26 8.88 8.44 8.47Q8.62 8.06 8.83 7.13L8.83 7.13L9.94 6.98L9.94 12.43L8.83 12.62Q8.69 11.69 8.51 11.26Q8.33 10.82 7.90 10.70Q7.46 10.58 6.60 10.58L6.60 10.58L4.51 10.58L4.51 17.09L7.61 17.09Q8.76 17.09 9.42 16.85Q10.08 16.61 10.48 15.94Q10.87 15.26 11.21 13.97L11.21 13.97L12.53 13.97L11.95 18.38ZM19.82 18.72L19.82 18.72Q17.50 18.72 16.20 17.12Q14.90 15.53 14.90 12.67L14.90 12.67Q14.90 10.58 15.62 9.06Q16.34 7.54 17.65 6.71Q18.96 5.88 20.76 5.88L20.76 5.88Q21.55 5.88 22.36 6.10Q23.16 6.31 23.71 6.67L23.71 6.67L23.71 2.93Q23.71 2.09 23.53 1.84Q23.35 1.58 22.68 1.49L22.68 1.49L21.62 1.32L21.77 0.12L25.68 0L25.94 0.26L25.94 16.03Q25.94 16.61 26.10 16.81Q26.26 17.02 26.74 17.11L26.74 17.11L27.91 17.33L27.91 18.46L24.22 18.60L23.88 16.70L23.81 16.70Q23.02 17.71 22.02 18.22Q21.02 18.72 19.82 18.72ZM20.52 16.99L20.52 16.99Q21.48 16.99 22.19 16.52Q22.90 16.06 23.30 15.22Q23.71 14.38 23.71 13.30L23.71 13.30L23.71 8.47Q23.11 7.99 22.33 7.74Q21.55 7.49 20.71 7.49L20.71 7.49Q19.01 7.49 18.14 8.74Q17.28 9.98 17.28 12.43L17.28 12.43Q17.28 14.64 18.12 15.82Q18.96 16.99 20.52 16.99ZM35.33 18.72L35.33 18.72Q33.58 18.72 32.29 17.95Q31.01 17.18 30.30 15.77Q29.59 14.35 29.59 12.46L29.59 12.46Q29.59 10.46 30.32 8.99Q31.06 7.51 32.38 6.70Q33.70 5.88 35.45 5.88L35.45 5.88Q37.44 5.88 38.65 7.04Q39.86 8.21 39.86 10.13L39.86 10.13Q39.86 10.63 39.78 11.23Q39.70 11.83 39.53 12.48L39.53 12.48L32.02 12.48Q32.09 14.59 33.11 15.77Q34.13 16.94 35.88 16.94L35.88 16.94Q36.79 16.94 37.66 16.56Q38.52 16.18 39.19 15.50L39.19 15.50L40.03 16.34Q39.50 17.06 38.75 17.60Q37.99 18.14 37.12 18.43Q36.24 18.72 35.33 18.72ZM32.02 11.14L32.02 11.14L37.54 11.14Q37.58 10.90 37.60 10.62Q37.61 10.34 37.61 10.03L37.61 10.03Q37.61 8.62 37.00 7.88Q36.38 7.15 35.18 7.15L35.18 7.15Q33.82 7.15 33.01 8.17Q32.21 9.19 32.02 11.14ZM48.14 18.38L42.26 18.38L42.26 17.26L43.42 17.04Q43.80 16.97 43.92 16.74Q44.04 16.51 44.04 15.89L44.04 15.89L44.04 9.12Q44.04 8.26 43.90 7.98Q43.75 7.70 43.22 7.63L43.22 7.63L42.05 7.46L42.22 6.31L45.55 6.05L45.84 6.22L46.01 8.35L46.08 8.35Q46.51 7.58 47.17 7.03Q47.83 6.48 48.64 6.18Q49.44 5.88 50.28 5.88L50.28 5.88Q51.55 5.88 52.43 6.35Q53.30 6.82 53.76 7.73Q54.22 8.64 54.22 9.98L54.22 9.98L54.22 16.08Q54.22 16.61 54.36 16.80Q54.50 16.99 54.96 17.06L54.96 17.06L56.09 17.26L56.09 18.38L50.21 18.38L50.21 17.28L51.26 17.09Q51.72 16.99 51.85 16.80Q51.98 16.61 51.98 16.08L51.98 16.08L51.98 10.68Q51.98 9.55 51.76 8.88Q51.53 8.21 51 7.91Q50.47 7.61 49.58 7.61L49.58 7.61Q48.07 7.61 47.17 8.52Q46.27 9.43 46.27 10.94L46.27 10.94L46.27 15.98Q46.27 16.54 46.39 16.74Q46.51 16.94 46.87 17.02L46.87 17.02L48.14 17.28L48.14 18.38ZM65.04 18.38L62.74 18.38L59.02 8.81Q58.78 8.18 58.62 7.94Q58.46 7.70 57.96 7.58L57.96 7.58L57.12 7.39L57.36 6.22L63.07 6.22L63.07 7.32L61.92 7.49Q61.44 7.56 61.33 7.81Q61.22 8.06 61.46 8.69L61.46 8.69L64.25 16.39L64.37 16.39L67.13 8.86Q67.34 8.23 67.22 7.96Q67.10 7.68 66.58 7.56L66.58 7.56L65.52 7.32L65.76 6.22L70.75 6.22L70.75 7.34L69.86 7.54Q69.43 7.63 69.24 7.85Q69.05 8.06 68.76 8.83L68.76 8.83L65.04 18.38Z" transform="translate(51, 5.308)"></path></svg>