<svg width="406" height="306" viewBox="0 0 406 306" fill="none" xmlns="http://www.w3.org/2000/svg">
<path d="M190.607 121.393H145.764C143.607 121.39 141.538 120.536 140.007 119.015C138.477 117.494 137.609 115.43 137.593 113.273V82.0516C137.589 80.9751 137.798 79.9083 138.206 78.9123C138.615 77.9164 139.216 77.0107 139.975 76.2471C140.733 75.4835 141.635 74.8771 142.629 74.4623C143.622 74.0476 144.688 73.8327 145.764 73.8301H190.607C192.774 73.8354 194.851 74.6994 196.382 76.2328C197.914 77.7661 198.775 79.8438 198.778 82.011V105.356L207.537 111.233C207.859 111.45 208.103 111.763 208.234 112.128C208.366 112.493 208.377 112.891 208.268 113.263C208.156 113.638 207.925 113.966 207.61 114.199C207.295 114.431 206.913 114.555 206.522 114.552H198.646C198.331 116.459 197.351 118.192 195.879 119.445C194.408 120.697 192.539 121.388 190.607 121.393ZM145.764 75.8601C144.135 75.8654 142.575 76.5155 141.424 77.6682C140.274 78.8208 139.626 80.3822 139.623 82.011V113.182C139.639 114.801 140.293 116.348 141.443 117.488C142.592 118.628 144.145 119.269 145.764 119.272H190.607C192.171 119.274 193.675 118.674 194.809 117.597C195.943 116.52 196.619 115.048 196.697 113.486C196.712 113.228 196.826 112.985 197.015 112.807C197.204 112.63 197.453 112.532 197.712 112.532H205.832L197.184 106.726C197.046 106.633 196.934 106.508 196.856 106.361C196.778 106.214 196.737 106.05 196.737 105.884V82.0516C196.742 81.2425 196.586 80.4405 196.28 79.6915C195.974 78.9425 195.524 78.2611 194.955 77.6861C194.385 77.1112 193.708 76.654 192.962 76.3407C192.216 76.0274 191.416 75.8641 190.607 75.8601H145.764Z" fill="#63D470"/>
<path d="M184.202 142.515C184.202 142.515 179.929 144.85 177.757 144.484C175.585 144.119 173.463 143.469 172.347 145.499C171.23 147.529 175.179 147.072 175.179 147.072C175.179 147.072 169.556 148.443 168.409 150.574C167.262 152.706 165.81 156.756 168.5 157.771C171.19 158.786 178.65 155.152 181.086 154.776C183.522 154.401 189.653 149.955 189.653 149.955L184.202 142.515Z" fill="#FFC9B0"/>
<path d="M169.667 158.978C169.149 158.992 168.633 158.91 168.145 158.735C167.704 158.579 167.303 158.329 166.969 158.001C166.636 157.673 166.379 157.275 166.216 156.837C165.333 154.482 166.978 151.092 167.516 150.117C168.186 148.869 169.891 147.905 171.505 147.225L171.413 147.093C171.229 146.784 171.135 146.43 171.144 146.07C171.153 145.711 171.264 145.362 171.464 145.063C172.824 142.627 175.311 143.033 177.3 143.418L177.919 143.53C179.249 143.743 182.182 142.515 183.715 141.662C183.932 141.544 184.184 141.508 184.425 141.562C184.666 141.617 184.879 141.757 185.024 141.957L190.475 149.417C190.554 149.525 190.611 149.647 190.642 149.777C190.674 149.907 190.679 150.042 190.658 150.174C190.638 150.306 190.591 150.433 190.521 150.547C190.451 150.661 190.36 150.76 190.252 150.838C189.612 151.305 183.877 155.456 181.228 155.842C179.995 156.136 178.785 156.516 177.605 156.979C174.874 157.902 171.86 158.978 169.667 158.978ZM175.179 146.078C175.419 146.074 175.653 146.155 175.839 146.308C176.025 146.46 176.151 146.674 176.194 146.91C176.24 147.165 176.187 147.428 176.045 147.645C175.904 147.862 175.685 148.017 175.433 148.077C173.281 148.605 169.962 149.884 169.343 151.122C168.439 152.797 167.719 155 168.155 156.197C168.215 156.365 168.313 156.517 168.442 156.64C168.57 156.763 168.726 156.855 168.896 156.908C170.337 157.446 174.326 156.035 176.965 155.101C178.266 154.582 179.607 154.171 180.975 153.873C182.416 153.65 185.907 151.467 188.272 149.813L183.898 143.865C182.456 144.565 179.503 145.895 177.595 145.54L176.945 145.428C174.783 145.042 173.839 144.992 173.24 146.047C173.841 146.173 174.458 146.201 175.067 146.128L175.179 146.078Z" fill="#0C1457"/>
<path d="M251.862 123.565H234.607C220.082 125.392 204.715 130.396 178.305 142.525L184.517 155.477L225.33 141.835V171.006H269.219V140.972C269.223 138.689 268.777 136.428 267.907 134.318C267.036 132.207 265.759 130.289 264.147 128.673C262.535 127.056 260.621 125.773 258.513 124.897C256.405 124.02 254.145 123.568 251.862 123.565Z" fill="#68E1FD"/>
<path d="M269.249 172.011H225.33C225.061 172.011 224.803 171.904 224.612 171.714C224.422 171.523 224.315 171.265 224.315 170.996V143.236L184.821 156.431C184.587 156.51 184.332 156.501 184.104 156.406C183.876 156.311 183.691 156.135 183.583 155.913L177.371 142.962C177.32 142.838 177.293 142.705 177.293 142.571C177.293 142.437 177.32 142.304 177.371 142.18C177.416 142.054 177.486 141.937 177.577 141.838C177.668 141.739 177.777 141.658 177.899 141.602C203.639 129.787 219.514 124.438 234.495 122.55H251.872C256.749 122.555 261.425 124.495 264.875 127.942C268.324 131.39 270.266 136.065 270.274 140.942V170.966C270.278 171.102 270.255 171.238 270.205 171.366C270.155 171.493 270.08 171.609 269.984 171.707C269.889 171.804 269.774 171.882 269.648 171.934C269.521 171.986 269.386 172.012 269.249 172.011ZM226.375 169.981H268.234V140.972C268.234 136.628 266.51 132.462 263.44 129.388C260.37 126.315 256.206 124.585 251.862 124.58H234.678C220.113 126.448 204.624 131.685 179.655 143.043L185.034 154.259L225.036 140.82C225.188 140.77 225.351 140.756 225.509 140.781C225.668 140.806 225.819 140.868 225.949 140.962C226.08 141.056 226.187 141.179 226.261 141.322C226.336 141.465 226.375 141.623 226.375 141.784V169.981Z" fill="#0C1457"/>
<path d="M238.87 124.276L241.458 150.239L246.615 124.184L238.87 124.276Z" fill="#0C1457"/>
<path d="M241.458 151.254C241.206 151.256 240.962 151.163 240.774 150.994C240.587 150.825 240.469 150.592 240.443 150.341L237.855 124.377C237.842 124.238 237.858 124.098 237.901 123.965C237.945 123.832 238.016 123.71 238.109 123.606C238.202 123.5 238.315 123.415 238.443 123.355C238.571 123.296 238.709 123.264 238.85 123.261L246.604 123.159C246.756 123.159 246.906 123.192 247.043 123.257C247.18 123.322 247.301 123.417 247.396 123.535C247.494 123.65 247.564 123.785 247.603 123.931C247.641 124.076 247.647 124.229 247.619 124.377L242.453 150.432C242.408 150.663 242.285 150.872 242.103 151.022C241.922 151.172 241.694 151.254 241.458 151.254ZM239.987 125.28L241.793 143.337L245.376 125.209L239.987 125.28Z" fill="#0C1457"/>
<path d="M225.33 170.164C225.061 170.164 224.803 170.057 224.612 169.866C224.422 169.676 224.315 169.418 224.315 169.149V136.121C224.315 135.851 224.422 135.593 224.612 135.403C224.803 135.213 225.061 135.106 225.33 135.106C225.599 135.106 225.857 135.213 226.048 135.403C226.238 135.593 226.345 135.851 226.345 136.121V169.149C226.345 169.418 226.238 169.676 226.048 169.866C225.857 170.057 225.599 170.164 225.33 170.164Z" fill="#0C1457"/>
<path d="M239.398 169.149H225.36V237.884H239.398V169.149Z" fill="#0C1457"/>
<path d="M239.398 238.91H225.33C225.061 238.91 224.803 238.803 224.612 238.612C224.422 238.422 224.315 238.164 224.315 237.895V169.149C224.315 168.88 224.422 168.621 224.612 168.431C224.803 168.241 225.061 168.134 225.33 168.134H239.367C239.637 168.134 239.895 168.241 240.085 168.431C240.275 168.621 240.382 168.88 240.382 169.149V237.895C240.383 238.159 240.28 238.412 240.096 238.602C239.912 238.791 239.662 238.902 239.398 238.91ZM226.375 236.88H238.383V170.164H226.345L226.375 236.88Z" fill="#0C1457"/>
<path d="M261.119 169.149H248.949V237.884H261.119V169.149Z" fill="#0C1457"/>
<path d="M261.119 238.91H248.939C248.67 238.91 248.411 238.803 248.221 238.612C248.031 238.422 247.924 238.164 247.924 237.895V169.149C247.924 168.88 248.031 168.621 248.221 168.431C248.411 168.241 248.67 168.134 248.939 168.134H261.119C261.388 168.134 261.646 168.241 261.837 168.431C262.027 168.621 262.134 168.88 262.134 169.149V237.895C262.134 238.164 262.027 238.422 261.837 238.612C261.646 238.803 261.388 238.91 261.119 238.91ZM249.954 236.88H260.104V170.164H249.954V236.88Z" fill="#0C1457"/>
<path d="M261.119 169.027H226.041V183.308H261.119V169.027Z" fill="#0C1457"/>
<path d="M261.119 184.333H226.041C225.771 184.333 225.513 184.226 225.323 184.036C225.132 183.845 225.026 183.587 225.026 183.318V169.027C225.026 168.758 225.132 168.5 225.323 168.309C225.513 168.119 225.771 168.012 226.041 168.012H261.119C261.388 168.012 261.646 168.119 261.837 168.309C262.027 168.5 262.134 168.758 262.134 169.027V183.318C262.134 183.587 262.027 183.845 261.837 184.036C261.646 184.226 261.388 184.333 261.119 184.333ZM227.056 182.303H260.104V170.042H227.056V182.303Z" fill="#0C1457"/>
<path d="M237.632 237.895V246.857H218.621L228.121 237.895H237.632Z" fill="#CCA131"/>
<path d="M237.632 247.872H218.621C218.418 247.872 218.219 247.811 218.051 247.697C217.882 247.583 217.752 247.421 217.677 247.233C217.601 247.044 217.583 246.836 217.627 246.637C217.67 246.438 217.772 246.256 217.92 246.116L227.431 237.154C227.618 236.978 227.865 236.881 228.121 236.88H237.632C237.901 236.88 238.159 236.987 238.349 237.177C238.54 237.367 238.647 237.625 238.647 237.895V246.857C238.647 247.126 238.54 247.384 238.349 247.575C238.159 247.765 237.901 247.872 237.632 247.872ZM221.168 245.842H236.617V238.91H228.497L221.168 245.842Z" fill="#0C1457"/>
<path d="M260.743 237.895V246.857H241.722L251.233 237.895H260.743Z" fill="#CCA131"/>
<path d="M260.743 247.872H241.722C241.519 247.871 241.321 247.81 241.153 247.695C240.985 247.58 240.855 247.418 240.781 247.228C240.707 247.039 240.691 246.832 240.736 246.634C240.78 246.435 240.884 246.255 241.032 246.116L250.543 237.154C250.73 236.978 250.976 236.881 251.233 236.88H260.743C261.013 236.88 261.271 236.987 261.461 237.177C261.651 237.367 261.758 237.625 261.758 237.895V246.857C261.758 247.126 261.651 247.384 261.461 247.575C261.271 247.765 261.013 247.872 260.743 247.872ZM244.28 245.842H259.728V238.91H251.608L244.28 245.842Z" fill="#0C1457"/>
<path d="M243.372 127.502L242.205 127.517C241.77 127.528 241.337 127.452 240.931 127.295C240.525 127.137 240.155 126.9 239.841 126.598C239.528 126.296 239.277 125.935 239.104 125.536C238.931 125.136 238.84 124.706 238.834 124.271L238.777 119.806L246.531 119.707L246.588 124.172C246.599 125.039 246.267 125.875 245.665 126.499C245.063 127.123 244.239 127.483 243.372 127.502Z" fill="#FFC9B0"/>
<path d="M242.159 128.539C241.028 128.539 239.942 128.094 239.137 127.3C238.332 126.506 237.871 125.427 237.855 124.296L237.794 119.83C237.794 119.561 237.901 119.303 238.091 119.112C238.282 118.922 238.54 118.815 238.809 118.815L246.564 118.713C246.833 118.713 247.091 118.82 247.282 119.011C247.472 119.201 247.579 119.459 247.579 119.728L247.63 124.184C247.643 125.325 247.204 126.424 246.409 127.242C245.614 128.06 244.527 128.53 243.387 128.549H242.159V128.539ZM239.834 120.814L239.885 124.265C239.896 124.868 240.144 125.441 240.575 125.861C241.007 126.281 241.587 126.514 242.189 126.509H243.356C243.655 126.505 243.95 126.442 244.224 126.324C244.499 126.206 244.747 126.035 244.955 125.821C245.164 125.607 245.328 125.354 245.438 125.077C245.549 124.8 245.604 124.503 245.6 124.205V120.754L239.834 120.814Z" fill="#0C1457"/>
<path d="M222.427 105.702C225.633 105.661 228.195 102.72 228.149 99.1323C228.104 95.545 225.467 92.67 222.261 92.7108C219.055 92.7517 216.493 95.6929 216.539 99.2803C216.584 102.868 219.22 105.743 222.427 105.702Z" fill="#FFC9B0"/>
<path d="M222.356 106.716C221.446 106.709 220.548 106.511 219.719 106.135C218.89 105.759 218.15 105.214 217.545 104.534C216.267 103.086 215.551 101.227 215.526 99.2955C215.502 97.3641 216.172 95.4881 217.413 94.0083C218.006 93.2987 218.745 92.7255 219.58 92.3282C220.414 91.9308 221.325 91.7186 222.25 91.706C223.174 91.6935 224.09 91.881 224.936 92.2556C225.781 92.6301 226.535 93.183 227.147 93.8763C228.418 95.33 229.13 97.189 229.154 99.1199C229.178 101.051 228.513 102.927 227.279 104.412C226.681 105.117 225.94 105.687 225.106 106.084C224.271 106.481 223.361 106.697 222.437 106.716H222.356ZM217.555 99.266C217.556 100.705 218.087 102.092 219.047 103.164C219.462 103.636 219.972 104.016 220.544 104.279C221.116 104.541 221.737 104.68 222.366 104.686C223.003 104.67 223.629 104.519 224.203 104.242C224.777 103.966 225.286 103.57 225.695 103.082C226.612 101.979 227.106 100.585 227.087 99.1509C227.068 97.7165 226.539 96.3358 225.594 95.2567C225.177 94.7728 224.659 94.3859 224.077 94.1229C223.495 93.8599 222.863 93.7273 222.224 93.7342C221.587 93.7478 220.96 93.898 220.385 94.1747C219.811 94.4514 219.303 94.848 218.895 95.3379C217.983 96.4394 217.506 97.8368 217.555 99.266Z" fill="#0C1457"/>
<path d="M266.255 77.5754C266.712 84.0613 267.27 95.4699 265.341 101.428C261.972 111.69 252.938 121.464 242.94 121.596C238.994 121.714 235.099 120.685 231.726 118.633C228.353 116.58 225.648 113.594 223.939 110.035C222.274 106.645 221.4 102.921 221.382 99.1442C221.382 99.1442 220.661 96.4849 221.067 86.0913C221.473 75.6977 221.808 70.2776 241.682 66.8063C257.008 64.1571 265.788 71.0997 266.255 77.5754Z" fill="#FFC9B0"/>
<path d="M242.646 122.611C238.562 122.666 234.546 121.555 231.071 119.408C227.596 117.262 224.805 114.169 223.026 110.492C221.318 106.993 220.41 103.159 220.367 99.266C220.225 98.5758 219.697 95.3176 220.062 86.071C220.468 75.6977 220.712 69.4453 241.509 65.8319C253.141 63.8019 259.688 67.2833 262.56 69.5265C263.861 70.4528 264.952 71.6429 265.762 73.0194C266.571 74.3958 267.082 75.9275 267.26 77.5145C268.102 89.3291 267.787 97.2664 266.306 101.763C261.86 115.313 251.192 122.509 242.961 122.621L242.646 122.611ZM248.096 67.263C246.003 67.2691 243.915 67.4559 241.854 67.8213C222.681 71.1606 222.478 76.1646 222.082 86.0913C221.686 96.018 222.356 98.8194 222.366 98.8498C222.377 98.9307 222.377 99.0126 222.366 99.0934C222.388 102.714 223.224 106.284 224.812 109.538C226.427 112.874 228.959 115.681 232.113 117.63C235.266 119.579 238.909 120.588 242.615 120.54H242.9C252.725 120.408 261.281 110.39 264.347 101.073C266.377 94.7695 265.514 81.8587 265.209 77.6059C265.046 76.3041 264.613 75.0509 263.936 73.9269C263.26 72.8028 262.355 71.8329 261.281 71.0794C258.084 68.5927 253.445 67.263 248.096 67.263Z" fill="#0C1457"/>
<path d="M262.195 94.668C262.195 94.668 267.696 90.7501 270.751 95.683C273.806 100.616 271.025 109.051 261.819 106.716" fill="#FFC9B0"/>
<path d="M264.763 108.096C263.684 108.091 262.61 107.951 261.565 107.68C261.436 107.647 261.315 107.588 261.208 107.508C261.101 107.428 261.011 107.327 260.944 107.212C260.876 107.097 260.831 106.97 260.812 106.838C260.794 106.706 260.801 106.571 260.835 106.442C260.868 106.313 260.926 106.191 261.007 106.084C261.087 105.978 261.187 105.888 261.302 105.82C261.417 105.752 261.545 105.708 261.677 105.689C261.809 105.67 261.944 105.678 262.073 105.711C265.473 106.574 268.163 105.894 269.726 103.803C270.48 102.683 270.896 101.37 270.924 100.021C270.953 98.6709 270.594 97.3415 269.888 96.1904C269.628 95.7119 269.269 95.2943 268.835 94.9653C268.401 94.6363 267.902 94.4034 267.371 94.2822C265.179 93.8356 262.814 95.4799 262.783 95.4901C262.564 95.6226 262.302 95.6669 262.051 95.6142C261.8 95.5615 261.578 95.4157 261.43 95.206C261.282 94.9964 261.219 94.7385 261.254 94.4842C261.288 94.23 261.418 93.9982 261.616 93.8356C261.738 93.7443 264.661 91.6737 267.757 92.2827C268.563 92.459 269.324 92.8031 269.988 93.2928C270.653 93.7825 271.207 94.4067 271.614 95.1247C272.539 96.6164 273.008 98.3459 272.963 100.101C272.918 101.855 272.361 103.558 271.36 105.001C270.594 106.012 269.593 106.823 268.443 107.362C267.294 107.901 266.031 108.153 264.763 108.096Z" fill="#0C1457"/>
<path d="M266.701 80.458C266.701 80.458 225.259 80.0013 219.819 74.1955C214.378 68.3897 216.713 60.6351 216.713 60.6351C216.713 60.6351 219.392 65.9841 222.711 67.4863C222.711 67.4863 219.21 61.2745 224.417 57.722C224.417 57.722 228.477 62.6549 241.032 62.6549C253.588 62.6549 266.032 66.7251 266.701 80.458Z" fill="#725858"/>
<path d="M266.701 81.473C262.418 81.473 224.67 80.8336 219.088 74.8857C213.312 68.7246 215.647 60.6757 215.748 60.361C215.805 60.1639 215.921 59.9886 216.079 59.8583C216.238 59.7281 216.432 59.6489 216.637 59.6313C216.841 59.6137 217.046 59.6585 217.225 59.7598C217.403 59.8611 217.547 60.0141 217.636 60.1986C218.462 61.8049 219.485 63.3017 220.681 64.6545C220.369 63.1948 220.504 61.6749 221.069 60.2933C221.634 58.9116 222.603 57.7325 223.848 56.91C224.058 56.7658 224.314 56.7057 224.566 56.7414C224.818 56.7771 225.047 56.9061 225.208 57.1029C225.208 57.1029 229.268 61.6602 241.042 61.6602C257.658 61.6602 267.138 68.3288 267.727 80.4174C267.727 80.6866 267.62 80.9448 267.429 81.1351C267.239 81.3255 266.981 81.4324 266.712 81.4324L266.701 81.473ZM217.271 63.5786C217.108 65.3688 217.316 67.1734 217.882 68.8796C218.447 70.5859 219.359 72.1571 220.56 73.4951C224.62 77.8596 253.456 79.24 265.605 79.4328C264.854 72.0132 259.84 63.6801 241.032 63.6801C230.882 63.6801 226.02 60.5133 224.345 59.072C220.925 62.117 223.473 66.7859 223.594 66.9991C223.7 67.1861 223.744 67.4018 223.719 67.6151C223.695 67.8285 223.603 68.0286 223.457 68.1865C223.312 68.3445 223.12 68.4522 222.909 68.4942C222.699 68.5362 222.48 68.5102 222.285 68.4201C220.255 67.4964 218.448 65.3244 217.271 63.5786Z" fill="#0C1457"/>
<path d="M258.825 179.979C258.825 179.979 259.089 185.48 258.703 186.251C258.317 187.023 254.988 189.104 256.562 191.885C256.562 191.885 254.704 196.158 258.287 196.676C261.87 197.193 265.625 197.843 266.925 194.087C268.224 190.332 267.178 179.979 267.178 179.979H258.825Z" fill="#FFC9B0"/>
<path d="M262.195 198.086C260.943 198.053 259.694 197.931 258.46 197.721H258.186C257.648 197.677 257.128 197.505 256.671 197.219C256.213 196.933 255.831 196.541 255.557 196.077C255.006 194.783 254.984 193.326 255.496 192.017C254.359 189.408 256.389 187.358 257.384 186.343C257.556 186.17 257.79 185.927 257.851 185.845C257.986 183.929 257.986 182.006 257.851 180.09C257.851 179.821 257.958 179.563 258.148 179.373C258.338 179.182 258.596 179.075 258.866 179.075H267.219C267.472 179.074 267.715 179.167 267.903 179.336C268.091 179.505 268.209 179.738 268.234 179.989C268.234 180.415 269.249 190.606 267.919 194.534C266.945 197.366 264.641 198.086 262.195 198.086ZM259.931 180.994C260.013 183.379 260.013 185.977 259.647 186.708C259.43 187.086 259.156 187.428 258.835 187.723C257.637 188.941 256.714 190.048 257.485 191.418C257.555 191.558 257.591 191.713 257.591 191.869C257.591 192.026 257.555 192.181 257.485 192.321C257.082 193.182 257.009 194.161 257.282 195.072C257.343 195.204 257.556 195.579 258.429 195.701H258.693C262.591 196.269 265.027 196.422 265.95 193.742C266.874 191.063 266.529 184.323 266.245 180.984L259.931 180.994Z" fill="#0C1457"/>
<path d="M269.239 140.972V181.714H256.084V137.328" fill="#68E1FD"/>
<path d="M269.249 182.729H256.054C255.785 182.729 255.527 182.622 255.336 182.432C255.146 182.242 255.039 181.984 255.039 181.714V137.328C255.039 137.059 255.146 136.801 255.336 136.611C255.527 136.42 255.785 136.313 256.054 136.313C256.323 136.313 256.581 136.42 256.772 136.611C256.962 136.801 257.069 137.059 257.069 137.328V180.699H268.234V140.972C268.234 140.703 268.341 140.445 268.531 140.255C268.722 140.064 268.98 139.957 269.249 139.957C269.518 139.957 269.776 140.064 269.967 140.255C270.157 140.445 270.264 140.703 270.264 140.972V181.714C270.264 181.984 270.157 182.242 269.967 182.432C269.776 182.622 269.518 182.729 269.249 182.729Z" fill="#0C1457"/>
<path d="M147.794 246.959C147.539 246.959 147.292 246.864 147.104 246.691C146.916 246.517 146.8 246.28 146.779 246.025L139.674 163.81C139.652 163.542 139.736 163.276 139.909 163.071C140.083 162.865 140.33 162.737 140.598 162.714C140.866 162.691 141.131 162.776 141.337 162.949C141.542 163.122 141.671 163.37 141.694 163.637L148.799 245.852C148.822 246.12 148.737 246.386 148.564 246.591C148.391 246.797 148.143 246.925 147.875 246.948L147.794 246.959Z" fill="#0C1457"/>
<path d="M191.216 246.959H191.124C190.857 246.935 190.609 246.807 190.436 246.601C190.263 246.396 190.178 246.13 190.201 245.862L197.306 163.647C197.329 163.378 197.458 163.129 197.664 162.955C197.871 162.781 198.138 162.696 198.407 162.719C198.676 162.742 198.925 162.87 199.1 163.077C199.274 163.284 199.359 163.551 199.336 163.82L192.231 246.035C192.208 246.288 192.091 246.523 191.903 246.694C191.715 246.865 191.47 246.96 191.216 246.959Z" fill="#0C1457"/>
<path d="M162.217 163.729H133.178C132.909 163.729 132.651 163.622 132.46 163.431C132.27 163.241 132.163 162.983 132.163 162.714C132.163 162.444 132.27 162.186 132.46 161.996C132.651 161.806 132.909 161.699 133.178 161.699H162.217C162.487 161.699 162.745 161.806 162.935 161.996C163.125 162.186 163.232 162.444 163.232 162.714C163.232 162.983 163.125 163.241 162.935 163.431C162.745 163.622 162.487 163.729 162.217 163.729Z" fill="#0C1457"/>
<path d="M205.832 163.729H176.783C176.513 163.729 176.255 163.622 176.065 163.431C175.875 163.241 175.768 162.983 175.768 162.714C175.768 162.444 175.875 162.186 176.065 161.996C176.255 161.806 176.513 161.699 176.783 161.699H205.832C206.101 161.699 206.359 161.806 206.55 161.996C206.74 162.186 206.847 162.444 206.847 162.714C206.847 162.983 206.74 163.241 206.55 163.431C206.359 163.622 206.101 163.729 205.832 163.729Z" fill="#0C1457"/>
<path d="M272.913 247.872H133.077C132.807 247.872 132.549 247.765 132.359 247.575C132.169 247.384 132.062 247.126 132.062 246.857C132.062 246.588 132.169 246.33 132.359 246.139C132.549 245.949 132.807 245.842 133.077 245.842H272.913C273.182 245.842 273.441 245.949 273.631 246.139C273.821 246.33 273.928 246.588 273.928 246.857C273.928 247.126 273.821 247.384 273.631 247.575C273.441 247.765 273.182 247.872 272.913 247.872Z" fill="#0C1457"/>
<path d="M174.184 113.527L171.139 111.679L167.475 109.497L174.204 105.437V108.117H174.428C176.772 108.117 179.117 108.117 181.452 108.117C181.836 108.107 182.217 108.035 182.578 107.904C182.777 107.856 182.962 107.765 183.121 107.638C183.28 107.51 183.409 107.349 183.499 107.165C183.588 106.982 183.635 106.781 183.638 106.577C183.64 106.373 183.597 106.171 183.512 105.985C183.262 105.331 182.95 104.702 182.578 104.108C181.685 102.575 180.761 101.063 179.828 99.5299L182.142 98.1901C182.873 99.3979 183.603 100.585 184.304 101.783C184.889 102.725 185.425 103.698 185.907 104.696C186.204 105.3 186.352 105.966 186.339 106.638C186.327 107.311 186.155 107.971 185.836 108.563C185.552 109.083 185.158 109.533 184.681 109.884C184.204 110.235 183.656 110.477 183.076 110.593C182.37 110.759 181.648 110.844 180.924 110.847C178.843 110.847 176.762 110.847 174.681 110.847H174.255V113.527H174.184Z" fill="#63D470"/>
<path d="M174.255 114.542C174.047 114.542 173.842 114.493 173.656 114.4L172.753 113.851L170.622 112.552L166.988 110.37C166.836 110.28 166.711 110.152 166.624 109.999C166.536 109.846 166.491 109.673 166.49 109.497C166.492 109.323 166.539 109.152 166.626 109.001C166.713 108.849 166.838 108.723 166.988 108.634L173.717 104.574C173.871 104.483 174.045 104.434 174.224 104.432C174.402 104.43 174.578 104.475 174.733 104.563C174.888 104.65 175.018 104.777 175.109 104.931C175.199 105.084 175.248 105.259 175.25 105.437V107.112H181.472C181.745 107.102 182.016 107.051 182.274 106.96C182.415 106.918 182.54 106.833 182.629 106.716C182.671 106.594 182.671 106.462 182.629 106.34C182.398 105.744 182.113 105.169 181.776 104.625C181.137 103.539 180.487 102.473 179.828 101.387L179.026 100.058C178.888 99.8273 178.846 99.5517 178.911 99.291C178.976 99.0304 179.141 98.806 179.371 98.6671L181.665 97.2867C181.895 97.1485 182.171 97.1073 182.431 97.172C182.692 97.2367 182.916 97.402 183.055 97.6318L183.715 98.728C184.223 99.5603 184.73 100.393 185.217 101.235L185.552 101.783C186.04 102.577 186.483 103.397 186.882 104.239C187.244 104.986 187.422 105.809 187.401 106.639C187.38 107.469 187.16 108.282 186.76 109.01C186.41 109.656 185.924 110.219 185.335 110.659C184.746 111.098 184.069 111.405 183.35 111.558C182.57 111.735 181.774 111.827 180.975 111.832C179.472 111.832 177.93 111.832 176.468 111.832H175.311V113.496C175.315 113.636 175.291 113.774 175.239 113.904C175.187 114.033 175.11 114.151 175.011 114.249C174.912 114.347 174.793 114.423 174.663 114.474C174.533 114.524 174.394 114.547 174.255 114.542ZM169.485 109.467L171.667 110.786L173.24 111.74V110.817C173.24 110.547 173.347 110.289 173.538 110.099C173.728 109.909 173.986 109.802 174.255 109.802H176.437C177.919 109.802 179.411 109.802 180.903 109.802C181.556 109.798 182.206 109.723 182.842 109.578C183.283 109.488 183.699 109.303 184.062 109.037C184.424 108.771 184.725 108.429 184.943 108.036C185.182 107.578 185.306 107.07 185.306 106.554C185.306 106.038 185.182 105.529 184.943 105.072C184.579 104.299 184.172 103.547 183.725 102.818L183.39 102.26C182.903 101.428 182.375 100.606 181.898 99.7734L181.766 99.54L181.208 99.8749L181.482 100.332C182.152 101.428 182.802 102.504 183.451 103.6C183.849 104.245 184.189 104.924 184.466 105.63C184.595 105.937 184.661 106.266 184.661 106.599C184.661 106.932 184.595 107.262 184.466 107.569C184.312 107.873 184.099 108.144 183.84 108.365C183.58 108.587 183.279 108.754 182.954 108.858C182.484 109.024 181.991 109.117 181.492 109.132H174.235C173.973 109.111 173.726 108.997 173.54 108.811C173.354 108.625 173.241 108.379 173.22 108.117V107.234L169.485 109.467Z" fill="#63D470"/>
<path d="M177.31 89.8772L179.554 88.5374V96.5458L172.875 92.5365L175.016 91.2475L174.001 89.6032C172.892 87.722 171.782 85.8511 170.672 83.9902C170.555 83.7971 170.423 83.6138 170.276 83.4421C170.123 83.1923 169.908 82.986 169.652 82.8429C169.396 82.6998 169.108 82.6246 168.815 82.6246C168.522 82.6246 168.233 82.6998 167.977 82.8429C167.722 82.986 167.507 83.1923 167.353 83.4421C166.815 84.1831 166.338 84.9849 165.892 85.7665C164.938 87.36 164.004 88.9637 163.05 90.5776L160.766 89.2276C160.766 89.1464 160.837 89.0652 160.878 88.9942C162.106 86.9033 163.344 84.8225 164.582 82.7316C165.175 81.609 166.135 80.724 167.302 80.2246C168.014 79.9206 168.798 79.8317 169.56 79.9688C170.321 80.1059 171.025 80.463 171.586 80.996C172.164 81.5018 172.661 82.0941 173.058 82.7519C174.58 85.1169 175.9 87.492 177.31 89.8772Z" fill="#63D470"/>
<path d="M179.554 97.5608C179.371 97.5607 179.193 97.5116 179.036 97.4187L172.357 93.4094C172.208 93.3189 172.085 93.1915 171.999 93.0395C171.914 92.8875 171.869 92.716 171.869 92.5416C171.869 92.3671 171.914 92.1956 171.999 92.0436C172.085 91.8916 172.208 91.7642 172.357 91.6738L173.636 90.9024L172.834 89.5524C171.84 87.8675 170.841 86.1758 169.84 84.4774C169.747 84.3271 169.641 84.1845 169.525 84.0511C169.446 83.9364 169.343 83.8394 169.225 83.766C169.106 83.6927 168.973 83.6446 168.835 83.6248C168.707 83.6472 168.586 83.6969 168.479 83.7705C168.372 83.8441 168.283 83.9398 168.216 84.0511C167.788 84.6488 167.391 85.2688 167.028 85.9086L166.795 86.2943C166.135 87.4006 165.486 88.5171 164.826 89.6336L163.963 91.0851C163.827 91.3165 163.604 91.4844 163.344 91.552C163.214 91.5851 163.079 91.5923 162.947 91.5731C162.815 91.554 162.687 91.5088 162.573 91.4403L160.289 90.0904C160.072 89.9626 159.911 89.7589 159.836 89.5189C159.761 89.2789 159.778 89.0195 159.883 88.7912C159.944 88.6491 159.994 88.5577 160.035 88.4765L160.898 87.0251C161.838 85.4078 162.789 83.8007 163.75 82.2038C164.46 80.8864 165.599 79.8513 166.978 79.2705C167.86 78.9046 168.829 78.7991 169.77 78.9663C170.711 79.1336 171.584 79.5667 172.286 80.2144C172.946 80.8002 173.511 81.485 173.961 82.2444C174.976 83.9496 175.991 85.6751 177.006 87.4108L177.625 88.4258L178.995 87.6138C179.149 87.5224 179.325 87.4734 179.504 87.4719C179.683 87.4703 179.86 87.5162 180.015 87.6048C180.171 87.6935 180.3 87.8218 180.39 87.9767C180.48 88.1316 180.528 88.3075 180.528 88.4867V96.495C180.528 96.6749 180.48 96.8514 180.389 97.0066C180.298 97.1617 180.167 97.2899 180.01 97.3781C179.875 97.4755 179.718 97.5382 179.554 97.5608ZM174.844 92.5365L178.539 94.7492V90.3238L177.838 90.7501C177.723 90.8197 177.595 90.8657 177.462 90.8854C177.329 90.9052 177.194 90.8984 177.064 90.8653C176.933 90.8323 176.811 90.7737 176.703 90.6929C176.596 90.6121 176.505 90.5108 176.437 90.3949L175.291 88.4461C174.289 86.7206 173.274 85.0086 172.246 83.3102C171.899 82.7403 171.468 82.2269 170.967 81.7877C170.547 81.3782 170.015 81.1034 169.438 80.9985C168.861 80.8937 168.266 80.9634 167.729 81.199C166.777 81.6015 165.993 82.318 165.506 83.229C164.552 84.8327 163.601 86.4364 162.654 88.0401L162.187 88.8419L162.735 89.1667L163.08 88.5882C163.74 87.4615 164.4 86.345 165.11 85.2285L165.333 84.853C165.731 84.1545 166.165 83.477 166.633 82.823C166.878 82.4588 167.205 82.1565 167.587 81.9399C167.969 81.7233 168.396 81.5982 168.835 81.5745C169.285 81.5757 169.729 81.6818 170.13 81.8844C170.532 82.0871 170.881 82.3806 171.149 82.7418C171.329 82.9557 171.492 83.1831 171.637 83.4218C172.638 85.0999 173.636 86.7916 174.631 88.4968L175.94 90.7197C176.075 90.949 176.114 91.2223 176.05 91.4804C175.985 91.7386 175.822 91.9611 175.595 92.1001L174.844 92.5365Z" fill="#63D470"/>
<path d="M164.816 108.147V110.827H164.43C161.838 110.827 159.247 110.827 156.655 110.827C155.337 110.923 154.026 110.564 152.94 109.812C152.384 109.396 151.949 108.838 151.679 108.198C151.41 107.557 151.316 106.857 151.408 106.168C151.593 104.964 152.051 103.818 152.747 102.818C153.833 100.991 154.92 99.1543 156.026 97.307L153.996 96.0586L160.664 92.0594V100.068L158.34 98.6367C158.005 99.1848 157.68 99.7329 157.325 100.271C156.371 101.885 155.417 103.488 154.483 105.112C154.304 105.431 154.171 105.772 154.087 106.127C154.019 106.329 153.997 106.543 154.023 106.755C154.048 106.966 154.12 107.169 154.234 107.349C154.348 107.529 154.5 107.681 154.68 107.795C154.86 107.908 155.063 107.98 155.275 108.005C155.705 108.101 156.144 108.152 156.584 108.157H164.765L164.816 108.147Z" fill="#63D470"/>
<path d="M159.862 111.862H156.686C155.135 111.936 153.605 111.485 152.341 110.583C151.653 110.061 151.113 109.367 150.777 108.571C150.44 107.775 150.318 106.904 150.423 106.046C150.624 104.691 151.131 103.4 151.905 102.27L154.666 97.6216L153.478 96.901C153.327 96.8111 153.201 96.6834 153.114 96.5303C153.027 96.3773 152.981 96.2042 152.981 96.0281C152.981 95.8519 153.027 95.6789 153.114 95.5258C153.201 95.3728 153.327 95.245 153.478 95.1552L160.137 91.1662C160.29 91.0727 160.466 91.0217 160.646 91.0184C160.825 91.015 161.003 91.0595 161.16 91.1473C161.317 91.2351 161.447 91.3629 161.539 91.5179C161.63 91.6728 161.679 91.8492 161.679 92.029V100.037C161.68 100.218 161.633 100.396 161.543 100.552C161.452 100.708 161.321 100.838 161.164 100.927C161.007 101.016 160.829 101.061 160.648 101.058C160.467 101.055 160.291 101.004 160.137 100.91L158.695 100.037L157.538 101.996C156.828 103.204 156.117 104.412 155.417 105.63C155.289 105.852 155.193 106.091 155.133 106.34C155.041 106.757 155.133 106.899 155.569 107.021C155.923 107.096 156.283 107.137 156.645 107.142H164.765C165.034 107.142 165.292 107.249 165.483 107.44C165.673 107.63 165.78 107.888 165.78 108.157V110.837C165.78 111.096 165.682 111.345 165.504 111.534C165.327 111.723 165.084 111.836 164.826 111.852C164.687 111.86 164.548 111.86 164.41 111.852H159.862V111.862ZM155.965 96.0281L156.574 96.3935C156.805 96.5308 156.973 96.7544 157.039 97.0152C157.106 97.2759 157.066 97.5525 156.929 97.784L153.651 103.265C153.04 104.136 152.628 105.131 152.443 106.178C152.366 106.699 152.432 107.231 152.634 107.717C152.836 108.204 153.166 108.626 153.59 108.939C154.495 109.575 155.593 109.877 156.696 109.791H163.801V109.122H156.635C156.112 109.117 155.591 109.056 155.082 108.939C154.747 108.882 154.427 108.755 154.144 108.566C153.861 108.378 153.62 108.133 153.438 107.846C153.255 107.559 153.135 107.237 153.084 106.901C153.033 106.565 153.053 106.222 153.143 105.894C153.25 105.437 153.424 104.999 153.661 104.595C154.361 103.377 155.082 102.159 155.792 100.941L157.477 98.1088C157.614 97.8774 157.836 97.7095 158.096 97.6419C158.226 97.6088 158.361 97.6016 158.493 97.6207C158.626 97.6399 158.753 97.685 158.868 97.7536L159.649 98.2205V93.8154L155.965 96.0281Z" fill="#63D470"/>
<path d="M241.458 170.164C241.189 170.164 240.931 170.057 240.741 169.866C240.55 169.676 240.443 169.418 240.443 169.149V150.239C240.443 149.97 240.55 149.712 240.741 149.522C240.931 149.331 241.189 149.224 241.458 149.224C241.728 149.224 241.986 149.331 242.176 149.522C242.366 149.712 242.473 149.97 242.473 150.239V169.149C242.473 169.418 242.366 169.676 242.176 169.866C241.986 170.057 241.728 170.164 241.458 170.164Z" fill="#0C1457"/>
<path d="M229.908 163.729C229.692 163.728 229.482 163.659 229.308 163.531C229.134 163.403 229.006 163.223 228.941 163.017C228.877 162.811 228.88 162.59 228.949 162.386C229.019 162.182 229.152 162.005 229.329 161.881L236.14 157.131C236.361 156.978 236.633 156.919 236.898 156.966C237.162 157.014 237.397 157.164 237.551 157.385C237.704 157.606 237.763 157.878 237.715 158.143C237.668 158.407 237.517 158.642 237.297 158.796L230.486 163.546C230.316 163.664 230.115 163.728 229.908 163.729Z" fill="#0C1457"/>
<path d="M252.349 163.729C252.142 163.728 251.941 163.664 251.771 163.546L244.97 158.796C244.765 158.636 244.628 158.404 244.589 158.147C244.549 157.89 244.61 157.628 244.759 157.414C244.907 157.201 245.132 157.052 245.387 157C245.641 156.947 245.906 156.994 246.127 157.131L252.938 161.881C253.158 162.035 253.309 162.27 253.357 162.534C253.404 162.799 253.345 163.071 253.192 163.292C253.098 163.428 252.972 163.539 252.825 163.615C252.678 163.691 252.515 163.73 252.349 163.729Z" fill="#0C1457"/>
<path d="M179.005 195.457C178.768 194.995 178.371 194.635 177.889 194.442L174.509 187.053C174.661 185.734 173.423 182.679 171.9 181.369C170.809 180.532 169.593 179.872 168.297 179.41C167.846 179.079 167.495 178.629 167.282 178.111L164.43 179.39L161.507 180.73C161.768 181.219 161.891 181.77 161.862 182.323C161.352 183.62 161.058 184.992 160.989 186.383C160.989 188.413 162.501 191.326 163.598 192.067L166.988 199.446C166.823 199.952 166.848 200.501 167.059 200.989C167.292 201.537 168.673 204.521 169.546 206.419C169.642 206.63 169.779 206.819 169.948 206.976C170.118 207.133 170.317 207.256 170.534 207.336C170.75 207.416 170.981 207.453 171.212 207.443C171.443 207.434 171.67 207.379 171.88 207.282L176.275 205.252L180.68 203.222C180.89 203.127 181.079 202.991 181.236 202.823C181.393 202.654 181.516 202.456 181.596 202.24C181.676 202.024 181.713 201.794 181.704 201.564C181.694 201.333 181.64 201.107 181.543 200.898C180.67 198.98 179.269 195.995 179.005 195.457Z" fill="white"/>
<path d="M171.109 208.429C170.577 208.43 170.057 208.278 169.609 207.992C169.161 207.706 168.804 207.298 168.581 206.815C167.708 204.907 166.328 201.913 166.084 201.365C165.838 200.782 165.764 200.141 165.871 199.518L162.735 192.687C161.082 190.973 160.09 188.729 159.934 186.353C159.948 185.102 160.189 183.864 160.644 182.699C160.715 182.516 160.776 182.33 160.827 182.141C160.81 181.817 160.719 181.501 160.563 181.217C160.5 181.094 160.462 180.96 160.453 180.823C160.443 180.685 160.462 180.547 160.508 180.417C160.553 180.287 160.625 180.167 160.718 180.066C160.811 179.964 160.924 179.883 161.05 179.826L166.896 177.147C167.022 177.094 167.156 177.067 167.292 177.067C167.428 177.067 167.563 177.094 167.688 177.147C167.817 177.198 167.933 177.275 168.031 177.372C168.129 177.47 168.206 177.587 168.257 177.715C168.37 178.018 168.555 178.29 168.795 178.507C168.964 178.595 169.141 178.67 169.322 178.73C170.503 179.147 171.6 179.773 172.56 180.578C174.261 182.248 175.315 184.467 175.534 186.84L178.67 193.671C179.211 193.995 179.648 194.467 179.929 195.031L182.426 200.482C182.73 201.15 182.758 201.911 182.503 202.599C182.248 203.287 181.732 203.847 181.066 204.156L172.256 208.216C171.894 208.37 171.502 208.443 171.109 208.429ZM167.891 199.781C167.822 200.038 167.843 200.31 167.952 200.553C168.186 201.091 169.556 204.075 170.429 205.963C170.469 206.055 170.528 206.139 170.601 206.208C170.675 206.277 170.762 206.33 170.857 206.365C170.952 206.399 171.053 206.413 171.154 206.407C171.255 206.401 171.354 206.374 171.444 206.328L180.244 202.268C180.336 202.228 180.42 202.169 180.489 202.095C180.558 202.022 180.611 201.935 180.646 201.84C180.68 201.744 180.694 201.643 180.688 201.543C180.682 201.442 180.655 201.343 180.609 201.253C179.746 199.365 178.386 196.381 178.122 195.843C178.005 195.602 177.808 195.408 177.564 195.295C177.316 195.199 177.116 195.01 177.006 194.767L173.565 187.439C173.484 187.268 173.453 187.079 173.474 186.891C173.291 185.084 172.496 183.394 171.22 182.1C170.432 181.445 169.531 180.939 168.561 180.608C168.292 180.508 168.031 180.39 167.78 180.253C167.41 180.039 167.097 179.739 166.866 179.38L162.725 181.278C162.84 181.691 162.865 182.124 162.796 182.547C162.727 182.825 162.642 183.1 162.542 183.369C162.163 184.319 161.961 185.33 161.943 186.353C162.088 188.167 162.851 189.876 164.105 191.195C164.257 191.301 164.38 191.444 164.46 191.611L167.851 199C167.902 199.124 167.929 199.256 167.929 199.391C167.929 199.525 167.902 199.658 167.851 199.781H167.891Z" fill="#0C1457"/>
<path d="M167.627 177.604L167.465 177.482L166.592 175.584C166.552 175.507 166.497 175.44 166.43 175.387C166.362 175.333 166.284 175.295 166.201 175.274C166.117 175.253 166.03 175.249 165.945 175.264C165.861 175.279 165.78 175.312 165.709 175.361L163.08 176.558L160.461 177.756C160.197 177.888 159.873 178.182 160.055 178.578L160.928 180.476V180.689C160.925 180.723 160.931 180.757 160.945 180.788C160.959 180.819 160.981 180.846 161.009 180.865C161.037 180.885 161.07 180.897 161.104 180.9C161.137 180.903 161.172 180.897 161.202 180.882L164.43 179.39L167.637 177.918C167.662 177.9 167.682 177.875 167.695 177.848C167.708 177.82 167.715 177.789 167.714 177.758C167.713 177.728 167.704 177.697 167.689 177.67C167.674 177.644 167.653 177.621 167.627 177.604Z" fill="#68E1FD"/>
<path d="M161.111 181.917C160.861 181.914 160.617 181.836 160.411 181.694C160.247 181.581 160.115 181.429 160.025 181.251C159.934 181.074 159.889 180.878 159.893 180.679L159.132 179.015C159.046 178.831 158.997 178.633 158.989 178.431C158.98 178.229 159.011 178.027 159.081 177.837C159.163 177.612 159.29 177.407 159.454 177.232C159.618 177.058 159.816 176.918 160.035 176.822L165.283 174.417C165.475 174.311 165.687 174.246 165.906 174.225C166.125 174.204 166.345 174.228 166.554 174.296C166.763 174.363 166.957 174.473 167.122 174.617C167.287 174.762 167.421 174.939 167.516 175.137L168.277 176.802C168.435 176.931 168.558 177.099 168.634 177.288C168.71 177.478 168.736 177.684 168.711 177.887C168.686 178.09 168.609 178.283 168.489 178.448C168.369 178.613 168.208 178.745 168.023 178.832L161.608 181.775C161.454 181.857 161.285 181.905 161.111 181.917ZM161.162 178.558L161.629 179.573L166.308 177.421L165.851 176.406L161.162 178.558Z" fill="#0C1457"/>
<path d="M169.028 189.53L167.363 190.291L163.557 192.037L166.907 199.335L170.703 197.589L177.848 194.311L174.509 187.013L169.028 189.53Z" fill="#68E1FD"/>
<path d="M166.907 200.35C166.785 200.348 166.665 200.324 166.551 200.279C166.299 200.185 166.095 199.995 165.983 199.751L162.633 192.463C162.577 192.342 162.545 192.211 162.54 192.077C162.534 191.944 162.555 191.81 162.602 191.685C162.648 191.559 162.718 191.444 162.809 191.346C162.9 191.248 163.009 191.169 163.131 191.113L168.602 188.606L174.083 186.089C174.204 186.033 174.335 186.001 174.469 185.995C174.602 185.99 174.736 186.011 174.861 186.057C174.986 186.103 175.101 186.174 175.2 186.265C175.298 186.356 175.377 186.465 175.433 186.586L178.772 193.884C178.828 194.005 178.86 194.137 178.865 194.27C178.871 194.404 178.85 194.537 178.804 194.663C178.758 194.788 178.687 194.903 178.596 195.001C178.505 195.099 178.396 195.178 178.275 195.234L167.323 200.248C167.195 200.316 167.052 200.351 166.907 200.35ZM164.877 192.534L167.373 197.985L176.508 193.813L174.001 188.363L164.877 192.534Z" fill="#0C1457"/>
<path d="M166.968 169.027C167.052 166.907 167.299 164.796 167.708 162.714L166.968 169.027Z" fill="white"/>
<path d="M166.968 170.042C166.712 170.043 166.465 169.947 166.277 169.774C166.089 169.601 165.973 169.363 165.953 169.108C166.021 166.895 166.276 164.691 166.714 162.521C166.738 162.389 166.788 162.264 166.861 162.152C166.934 162.04 167.028 161.944 167.139 161.868C167.249 161.793 167.373 161.74 167.504 161.712C167.635 161.685 167.77 161.684 167.901 161.709C168.033 161.733 168.158 161.783 168.27 161.856C168.382 161.929 168.479 162.024 168.554 162.134C168.629 162.244 168.682 162.368 168.71 162.499C168.737 162.63 168.738 162.765 168.713 162.896C168.298 164.902 168.054 166.939 167.983 168.986C168.002 169.254 167.915 169.519 167.74 169.722C167.565 169.926 167.316 170.052 167.049 170.072L166.968 170.042Z" fill="#DFEAEF"/>
<path d="M150.362 227.938C150.971 226.718 151.917 225.699 153.089 225.003C154.26 224.306 155.608 223.961 156.97 224.009C159.673 224.207 162.247 225.247 164.328 226.983C164.443 225.775 164.881 224.619 165.595 223.637C166.309 222.655 167.274 221.883 168.388 221.401C169.484 220.976 170.68 220.877 171.831 221.117C172.982 221.356 174.039 221.924 174.874 222.751C175.94 220.457 177.097 218.041 179.137 216.661C181.177 215.28 184.365 215.565 185.451 217.848C185.819 216.549 186.55 215.381 187.559 214.482C188.567 213.583 189.811 212.99 191.145 212.773" fill="white"/>
<path d="M150.362 228.952C150.218 228.952 150.077 228.921 149.946 228.861C149.701 228.75 149.511 228.547 149.415 228.296C149.32 228.045 149.329 227.766 149.438 227.521C150.128 226.122 151.206 224.951 152.543 224.148C153.881 223.346 155.421 222.945 156.98 222.994C159.372 223.114 161.682 223.902 163.648 225.268C163.979 224.201 164.536 223.219 165.282 222.388C166.029 221.557 166.947 220.899 167.972 220.457C169.031 220.047 170.172 219.897 171.3 220.019C172.429 220.141 173.512 220.531 174.458 221.157C175.318 219.057 176.719 217.222 178.518 215.839C179.227 215.375 180.024 215.064 180.859 214.926C181.695 214.788 182.55 214.826 183.37 215.037C184.002 215.207 184.592 215.504 185.106 215.91C185.692 214.814 186.525 213.87 187.54 213.153C188.555 212.435 189.723 211.965 190.952 211.779C191.221 211.744 191.493 211.817 191.708 211.983C191.923 212.148 192.064 212.393 192.099 212.662C192.134 212.931 192.06 213.203 191.895 213.418C191.729 213.633 191.485 213.774 191.216 213.809C190.076 214.001 189.015 214.513 188.156 215.286C187.297 216.059 186.675 217.06 186.364 218.173C186.308 218.373 186.192 218.551 186.032 218.682C185.872 218.814 185.675 218.894 185.468 218.91C185.261 218.927 185.054 218.88 184.875 218.775C184.696 218.671 184.553 218.514 184.466 218.325C184.307 218 184.078 217.714 183.795 217.488C183.513 217.262 183.184 217.1 182.832 217.016C182.291 216.88 181.728 216.856 181.178 216.947C180.628 217.038 180.103 217.241 179.635 217.544C177.777 218.782 176.64 221.238 175.737 223.197C175.669 223.347 175.566 223.478 175.436 223.579C175.306 223.679 175.154 223.747 174.992 223.776C174.83 223.805 174.664 223.794 174.507 223.745C174.351 223.695 174.208 223.608 174.093 223.492C173.399 222.807 172.523 222.337 171.569 222.137C170.615 221.937 169.623 222.017 168.713 222.365C167.776 222.779 166.967 223.436 166.369 224.267C165.771 225.099 165.407 226.075 165.313 227.095C165.296 227.274 165.232 227.446 165.126 227.592C165.021 227.739 164.879 227.854 164.714 227.927C164.549 227.999 164.369 228.025 164.19 228.004C164.012 227.982 163.842 227.914 163.699 227.806C161.789 226.197 159.42 225.231 156.929 225.045C155.766 225 154.614 225.29 153.61 225.88C152.606 226.47 151.792 227.336 151.265 228.374C151.184 228.545 151.056 228.69 150.896 228.792C150.737 228.895 150.552 228.95 150.362 228.952Z" fill="#DFEAEF"/>
<path d="M171.474 228.049C172.844 227.327 174.406 227.054 175.94 227.268C176.704 227.386 177.415 227.729 177.982 228.253C178.55 228.778 178.949 229.459 179.127 230.211C179.127 230.333 179.178 230.485 179.29 230.546C179.341 230.568 179.396 230.58 179.452 230.58C179.508 230.58 179.563 230.568 179.614 230.546C180.183 230.346 180.789 230.276 181.389 230.339C181.989 230.403 182.566 230.599 183.081 230.914C183.595 231.229 184.032 231.655 184.362 232.16C184.691 232.665 184.903 233.237 184.984 233.835" fill="white"/>
<path d="M184.984 234.819C184.736 234.821 184.496 234.733 184.309 234.57C184.122 234.407 184.001 234.182 183.969 233.936C183.91 233.484 183.75 233.051 183.501 232.669C183.252 232.287 182.92 231.966 182.531 231.729C182.141 231.492 181.703 231.346 181.249 231.301C180.795 231.256 180.337 231.314 179.909 231.47C179.732 231.55 179.54 231.592 179.345 231.592C179.151 231.592 178.959 231.55 178.782 231.47C178.585 231.359 178.418 231.202 178.295 231.013C178.171 230.824 178.095 230.608 178.072 230.384C177.922 229.84 177.617 229.352 177.196 228.977C176.775 228.603 176.254 228.358 175.697 228.272C174.375 228.1 173.032 228.348 171.86 228.983C171.617 229.091 171.341 229.1 171.092 229.008C170.843 228.915 170.64 228.728 170.527 228.488C170.414 228.247 170.4 227.972 170.488 227.721C170.576 227.47 170.759 227.263 170.997 227.146C172.555 226.328 174.332 226.026 176.072 226.283C176.919 226.435 177.714 226.799 178.382 227.343C179.05 227.886 179.568 228.59 179.888 229.389C180.574 229.243 181.281 229.24 181.968 229.381C182.654 229.522 183.303 229.804 183.875 230.208C184.447 230.612 184.93 231.13 185.292 231.73C185.654 232.33 185.887 232.998 185.978 233.693C186.01 233.959 185.935 234.227 185.769 234.438C185.604 234.649 185.362 234.786 185.095 234.819H184.984Z" fill="#DFEAEF"/>
<path d="M170.733 239.772C170.268 238.467 169.334 237.382 168.112 236.727C166.891 236.072 165.47 235.895 164.125 236.23C162.855 236.685 161.681 237.373 160.664 238.26C160.774 237.923 160.762 237.557 160.628 237.228C160.494 236.899 160.248 236.628 159.934 236.463C159.303 236.16 158.59 236.071 157.904 236.21C156.239 236.443 154.483 237.357 154.026 238.981H154.595" fill="white"/>
<path d="M170.733 240.787C170.509 240.798 170.288 240.733 170.105 240.605C169.921 240.476 169.785 240.291 169.718 240.077C169.323 239.049 168.572 238.197 167.601 237.677C166.63 237.157 165.505 237.004 164.43 237.245C163.285 237.663 162.226 238.285 161.304 239.082C161.125 239.221 160.906 239.297 160.68 239.297C160.453 239.297 160.234 239.221 160.055 239.082C159.879 238.942 159.755 238.747 159.702 238.529C159.648 238.31 159.669 238.08 159.761 237.874C159.761 237.783 159.69 237.509 159.457 237.377C159.01 237.178 158.511 237.132 158.036 237.245C157.049 237.349 156.127 237.79 155.427 238.493C155.531 238.651 155.59 238.835 155.595 239.024C155.601 239.213 155.554 239.4 155.459 239.564C155.364 239.727 155.225 239.861 155.058 239.95C154.891 240.039 154.702 240.079 154.513 240.067H153.945C153.795 240.056 153.649 240.012 153.518 239.937C153.386 239.863 153.274 239.76 153.187 239.637C153.101 239.513 153.043 239.372 153.018 239.224C152.992 239.075 153.001 238.923 153.042 238.778C153.651 236.595 155.884 235.54 157.751 235.276C158.671 235.094 159.625 235.227 160.461 235.651C160.844 235.873 161.167 236.183 161.405 236.555C162.159 236.017 162.996 235.606 163.882 235.337C165.479 234.939 167.167 235.15 168.618 235.929C170.068 236.708 171.177 237.998 171.728 239.549C171.811 239.805 171.789 240.083 171.668 240.323C171.546 240.563 171.334 240.744 171.078 240.828C170.962 240.832 170.845 240.819 170.733 240.787Z" fill="#DFEAEF"/>
</svg>
