<svg xmlns="http://www.w3.org/2000/svg" viewBox="0 0 400 300" width="406" height="306" class="illustration styles_illustrationTablet__1DWOa"><g id="_74_recycling_outline" data-name="#74_recycling_outline"><path d="M219.75,79.24c-4.67-1.5-14.32-8.91-14-14.4H194.35c-.08,4.44-7,11.58-11.83,13.5a28.44,28.44,0,0,1-6.31,1.75A11.05,11.05,0,0,0,166.79,91v2.7a11.06,11.06,0,0,0,11.06,11.06h44.37a11.06,11.06,0,0,0,11.06-11.06V91a11.06,11.06,0,0,0-9.56-11A22.23,22.23,0,0,1,219.75,79.24Z" fill="#fff"></path><path d="M222.21,105.79H177.85a12.07,12.07,0,0,1-12.06-12.06V91A12.12,12.12,0,0,1,176.06,79.1a27.34,27.34,0,0,0,6.09-1.69c4.56-1.81,11.13-8.63,11.2-12.59a1,1,0,0,1,1-1h11.36a1,1,0,0,1,.73.31,1,1,0,0,1,.27.74c-.24,4.81,8.8,11.93,13.35,13.4h0a22.12,22.12,0,0,0,3.79.79,12.09,12.09,0,0,1,10.43,12v2.7A12.08,12.08,0,0,1,222.21,105.79Zm-27-39.95c-.91,4.8-7.46,11.48-12.36,13.43a29.74,29.74,0,0,1-6.54,1.81,10.12,10.12,0,0,0-8.56,10v2.7a10.07,10.07,0,0,0,10.06,10.06h44.36a10.07,10.07,0,0,0,10.07-10.06V91a10.09,10.09,0,0,0-8.7-10,23.34,23.34,0,0,1-4.13-.87h0c-4.29-1.38-13.94-8.19-14.7-14.35Z" fill="#0c1457"></path><rect x="166.79" y="104.79" width="66.5" height="24.82" rx="11.07" fill="#fff"></rect><path d="M222.21,130.62H177.85a12.08,12.08,0,0,1-12.06-12.07v-2.69a12.08,12.08,0,0,1,12.06-12.07h44.36a12.08,12.08,0,0,1,12.07,12.07v2.69A12.08,12.08,0,0,1,222.21,130.62Zm-44.36-24.83a10.08,10.08,0,0,0-10.06,10.07v2.69a10.08,10.08,0,0,0,10.06,10.07h44.36a10.08,10.08,0,0,0,10.07-10.07v-2.69a10.08,10.08,0,0,0-10.07-10.07Z" fill="#0c1457"></path><rect x="166.79" y="129.62" width="66.5" height="24.82" rx="11.07" fill="#fff"></rect><path d="M222.21,155.44H177.85a12.07,12.07,0,0,1-12.06-12.06v-2.7a12.07,12.07,0,0,1,12.06-12.06h44.36a12.08,12.08,0,0,1,12.07,12.06v2.7A12.08,12.08,0,0,1,222.21,155.44Zm-44.36-24.82a10.07,10.07,0,0,0-10.06,10.06v2.7a10.07,10.07,0,0,0,10.06,10.06h44.36a10.07,10.07,0,0,0,10.07-10.06v-2.7a10.07,10.07,0,0,0-10.07-10.06Z" fill="#0c1457"></path><rect x="190.18" y="58.14" width="19.7" height="6.7" rx="2.59" fill="#63d470"></rect><path d="M207.29,65.84H192.77a3.59,3.59,0,0,1-3.59-3.59V60.73a3.59,3.59,0,0,1,3.59-3.59h14.52a3.59,3.59,0,0,1,3.59,3.59v1.52A3.59,3.59,0,0,1,207.29,65.84Zm-14.52-6.7a1.59,1.59,0,0,0-1.59,1.59v1.52a1.59,1.59,0,0,0,1.59,1.59h14.52a1.59,1.59,0,0,0,1.59-1.59V60.73a1.59,1.59,0,0,0-1.59-1.59Z" fill="#0c1457"></path><path d="M223.72,81.09H176.21a1,1,0,0,1,0-2h47.51a1,1,0,0,1,0,2Z" fill="#0c1457"></path><path d="M258.79,106.88l-5.36,40.3-20.15-2.68,5.36-40.3a41,41,0,0,1,4.18-13.3l3.54-6.85,1-7.56,10.25,1.36-1,7.56L258.23,93a40.13,40.13,0,0,1,.91,8.31A39.18,39.18,0,0,1,258.79,106.88Z" fill="#fff"></path><path d="M253.43,148.18h-.14l-20.14-2.68a1,1,0,0,1-.66-.39,1,1,0,0,1-.2-.74l5.36-40.29a42.84,42.84,0,0,1,1.15-5.65,41.36,41.36,0,0,1,3.14-8l3.45-6.7,1-7.38a1,1,0,0,1,1.12-.86l10.25,1.36a1,1,0,0,1,.86,1.12l-1,7.39,1.59,7.37a41.9,41.9,0,0,1,.57,14.27h0l-5.36,40.3A1,1,0,0,1,253.43,148.18Zm-19-4.54,18.17,2.41,5.23-39.3a39.9,39.9,0,0,0-.55-13.59l-1.62-7.54a1,1,0,0,1,0-.34l.87-6.57-8.26-1.1-.88,6.57a1,1,0,0,1-.1.33l-3.54,6.85a39.74,39.74,0,0,0-3,7.59,42,42,0,0,0-1.1,5.38Zm24.39-36.76h0Z" fill="#0c1457"></path><rect x="246.12" y="72.44" width="13.37" height="4.75" rx="1.91" transform="translate(12.08 -32.69) rotate(7.58)" fill="#0c1457"></rect><path d="M257.48,78.82l-.39,0-9.46-1.26a2.91,2.91,0,0,1-2.5-3.26l.12-.93a2.92,2.92,0,0,1,3.27-2.5L258,72.1a2.92,2.92,0,0,1,2.5,3.27l-.12.92A2.92,2.92,0,0,1,257.48,78.82Zm-9.35-6a.91.91,0,0,0-.9.79l-.12.92a.9.9,0,0,0,.78,1l9.47,1.26a.9.9,0,0,0,1-.78l.12-.92a.92.92,0,0,0-.78-1l-9.47-1.26h-.12Z" fill="#0c1457"></path><path d="M258.79,106.88l-5.36,40.3-20.15-2.68,5.36-40.3a40.77,40.77,0,0,1,1.13-5.51l19.37,2.57A39.18,39.18,0,0,1,258.79,106.88Z" fill="#ffbc0e"></path><path d="M253.43,148.18h-.14l-20.14-2.68a1,1,0,0,1-.66-.39,1,1,0,0,1-.2-.74l5.36-40.29a42.84,42.84,0,0,1,1.15-5.65,1,1,0,0,1,1.1-.73l19.38,2.58a1,1,0,0,1,.86,1,41.2,41.2,0,0,1-.36,5.75h0l-5.36,40.3A1,1,0,0,1,253.43,148.18Zm-19-4.54,18.17,2.41,5.23-39.3a39.71,39.71,0,0,0,.34-4.61l-17.63-2.35a40.88,40.88,0,0,0-.88,4.54Zm24.39-36.76h0Z" fill="#0c1457"></path><rect x="147.38" y="68.15" width="11.46" height="9.06" transform="translate(-12.11 34.88) rotate(-12.51)" fill="#0c1457"></rect><path d="M148.49,79.34a1,1,0,0,1-1-.78l-2-8.84a1,1,0,0,1,.14-.76,1,1,0,0,1,.62-.43L157.5,66a1,1,0,0,1,.75.14,1,1,0,0,1,.44.62l2,8.85a1,1,0,0,1-.76,1.19l-11.18,2.48A.82.82,0,0,1,148.49,79.34Zm-.77-9.08,1.53,6.89,9.23-2.05L157,68.21Z" fill="#0c1457"></path><path d="M156.59,75.7h6.7A11.27,11.27,0,0,1,174.56,87v44.38a0,0,0,0,1,0,0H145.32a0,0,0,0,1,0,0V87A11.27,11.27,0,0,1,156.59,75.7Z" transform="translate(-18.62 37.09) rotate(-12.51)" fill="#fff"></path><path d="M151.7,134.85a1,1,0,0,1-1-.79l-9.61-43.32a12.28,12.28,0,0,1,9.32-14.63L157,74.66A12.26,12.26,0,0,1,171.61,84l9.61,43.32a1,1,0,0,1-.13.75,1,1,0,0,1-.63.44l-28.55,6.33A.76.76,0,0,1,151.7,134.85Zm8-58.49a10.05,10.05,0,0,0-2.24.25l-6.55,1.45a10.28,10.28,0,0,0-7.8,12.25l9.4,42.34,26.59-5.89-9.39-42.35a10.28,10.28,0,0,0-10-8Z" fill="#0c1457"></path><rect x="143.71" y="86.49" width="29.24" height="19.5" transform="translate(-17.08 36.57) rotate(-12.51)" fill="#f56132"></rect><path d="M146.17,109.92a1,1,0,0,1-.54-.15,1.05,1.05,0,0,1-.44-.63L141,90.1a1,1,0,0,1,.76-1.19l28.55-6.33a1,1,0,0,1,.75.13,1,1,0,0,1,.44.63l4.22,19a1,1,0,0,1-.76,1.2l-28.55,6.33Zm-3-19.27,3.79,17.08,26.59-5.9-3.79-17.08Z" fill="#0c1457"></path><rect x="130.9" y="112.1" width="138.2" height="13.49" rx="5.04" fill="#68e1fd"></rect><path d="M264.06,126.59H135.94a6,6,0,0,1-6-6v-3.41a6,6,0,0,1,6-6H264.06a6,6,0,0,1,6,6v3.41A6,6,0,0,1,264.06,126.59ZM135.94,113.1a4,4,0,0,0-4,4v3.41a4,4,0,0,0,4,4H264.06a4,4,0,0,0,4-4v-3.41a4,4,0,0,0-4-4Z" fill="#0c1457"></path><path d="M239.57,241.86H160.43c-5.85,0-10.73-4-11.2-9.26l-9.6-107H260.37l-9.6,107C250.3,237.83,245.42,241.86,239.57,241.86Z" fill="#68e1fd"></path><path d="M239.57,242.86H160.43c-6.33,0-11.68-4.47-12.19-10.17l-9.61-107a1,1,0,0,1,1-1.09H260.37a1,1,0,0,1,1,1.09l-9.61,107C251.25,238.39,245.9,242.86,239.57,242.86ZM140.72,126.59l9.51,105.92c.42,4.68,4.9,8.35,10.2,8.35h79.14c5.3,0,9.78-3.67,10.2-8.35l9.51-105.92Z" fill="#0c1457"></path><g id="OMxHr2"><path d="M220.69,176.47l-19.06-7.09,6.58-3.81-1.53-2.66-2.63-4.54A4.61,4.61,0,0,0,201,156a4.26,4.26,0,0,0-4.64,2.13q-1.51,2.61-3,5.22l-3.38,5.85-.2.32-9.28-5.35,1.67-2.9c1.59-2.75,3.18-5.49,4.76-8.25a14.36,14.36,0,0,1,9.35-7.32c6.48-1.53,11.83.48,16,5.65a39.52,39.52,0,0,1,2.72,4.41c.83,1.39,1.63,2.8,2.44,4.21,0,.08.1.15.17.26l6.57-3.79C223,163.13,221.82,169.77,220.69,176.47Z" fill="#fff"></path><path d="M220.69,177.47a1.07,1.07,0,0,1-.35-.06l-19.06-7.09a1,1,0,0,1-.15-1.81l5.71-3.3-3.66-6.34a3.63,3.63,0,0,0-2.43-1.92,3.26,3.26,0,0,0-3.56,1.67c-.72,1.22-1.42,2.45-2.13,3.68l-4.26,7.38-.15.24-.07.11a1,1,0,0,1-1.35.34L180,165a1,1,0,0,1-.46-.61,1,1,0,0,1,.09-.75l3.11-5.38q1.67-2.88,3.32-5.77a15.37,15.37,0,0,1,10-7.79c6.8-1.61,12.5.41,17,6a24,24,0,0,1,2.09,3.29c.24.41.47.82.71,1.22.57,1,1.12,1.92,1.67,2.88l.43.75,5.72-3.3a1,1,0,0,1,1.07,0,1,1,0,0,1,.42,1l-3.39,20.06a1,1,0,0,1-.49.7A1,1,0,0,1,220.69,177.47ZM204,169.18l15.94,5.93,2.83-16.77L218,161.07a1,1,0,0,1-1.34-.32l-.06-.09c-.05-.07-.1-.14-.14-.21l-.78-1.36c-.54-1-1.09-1.9-1.65-2.84-.25-.42-.49-.84-.73-1.27a21,21,0,0,0-1.92-3c-3.92-4.93-8.95-6.71-14.93-5.31a13.43,13.43,0,0,0-8.71,6.85l-3.33,5.77-2.6,4.51,7.56,4.36,3.94-6.84c.71-1.23,1.42-2.46,2.14-3.69a5.25,5.25,0,0,1,5.71-2.61,5.61,5.61,0,0,1,3.74,2.86l4.17,7.21a1,1,0,0,1-.37,1.37Z" fill="#0c1457"></path><path d="M169.84,182.58l-6.58-3.8,19.07-7.09c1.13,6.69,2.25,13.33,3.38,20.05L179.14,188c-.07.11-.14.21-.2.32-1.33,2.29-2.67,4.58-4,6.89a4.39,4.39,0,0,0,.09,5,4.14,4.14,0,0,0,3.56,1.77h13.12V212.7h-.33c-4.29,0-8.58,0-12.87,0a14.95,14.95,0,0,1-14.91-16.49,15.38,15.38,0,0,1,2-6.32c1.31-2.3,2.65-4.59,4-6.89C169.69,182.86,169.76,182.73,169.84,182.58Z" fill="#fff"></path><path d="M183.64,213.71l-5.1,0a16,16,0,0,1-15.91-17.58,16.45,16.45,0,0,1,2.14-6.73l2.81-4.87.9-1.56-5.72-3.3a1,1,0,0,1-.5-1,1,1,0,0,1,.65-.85l19.07-7.1a1,1,0,0,1,.85.07,1,1,0,0,1,.48.7l3.39,20.06a1,1,0,0,1-.41,1,1,1,0,0,1-1.08.05l-5.72-3.3-.8,1.39c-1,1.65-1.92,3.29-2.85,5a3.4,3.4,0,0,0,0,4,3.11,3.11,0,0,0,2.74,1.34h13.12a1,1,0,0,1,1,1V212.7a1,1,0,0,1-1,1h-8.1ZM165.6,179l4.74,2.74a1,1,0,0,1,.37,1.35l-1.4,2.44q-1.41,2.43-2.8,4.87a14.44,14.44,0,0,0-1.89,5.91,14,14,0,0,0,13.93,15.4q4.48,0,9,0h3.22V203H178.61a5.15,5.15,0,0,1-4.37-2.19,5.4,5.4,0,0,1-.14-6.12c.94-1.66,1.9-3.31,2.86-5l1.11-1.92.17-.27.06-.09a1,1,0,0,1,1.34-.33l4.74,2.74-2.84-16.77Z" fill="#0c1457"></path><path d="M213,220.27l-15.67-13L213,194.37v7.57l.37,0c2.68,0,5.37,0,8.06,0a4.54,4.54,0,0,0,3.65-1.64,4.22,4.22,0,0,0,.35-4.91q-1.89-3.3-3.8-6.58l-2.64-4.58a2.73,2.73,0,0,1-.13-.25l9.28-5.36c.3.52.58,1,.87,1.5,1.95,3.38,3.93,6.74,5.84,10.13a14.89,14.89,0,0,1-3.24,18.64,15.08,15.08,0,0,1-8.56,3.65c-1.06.11-2.14.1-3.22.11-2.14,0-4.27,0-6.41,0-.32,0-.42.08-.42.41,0,2.26,0,4.51,0,6.77Z" fill="#fff"></path><path d="M213,221.27a1,1,0,0,1-.64-.23l-15.67-12.95a1,1,0,0,1,0-1.55l15.66-12.94a1,1,0,0,1,1.64.77V201h7.42a3.58,3.58,0,0,0,2.89-1.27,3.22,3.22,0,0,0,.25-3.78c-.86-1.51-1.73-3-2.6-4.52l-4-6.92a1,1,0,0,1,.39-1.34l9.28-5.36a1,1,0,0,1,1.36.37l2.67,4.6c1.36,2.34,2.72,4.68,4,7a15.81,15.81,0,0,1-3.46,19.88,16,16,0,0,1-9.11,3.9c-1,.09-2,.1-2.94.1h-.37c-1.94,0-3.89,0-5.83,0v6.6a1,1,0,0,1-.57.9A1,1,0,0,1,213,221.27Zm-14.1-14L212,218.15v-.06c0-1.67,0-3.34,0-5a1.31,1.31,0,0,1,1.42-1.42c2.14,0,4.27,0,6.41,0h.37c1,0,1.86,0,2.76-.09a14.07,14.07,0,0,0,8-3.42,13.83,13.83,0,0,0,3-17.39c-1.33-2.35-2.68-4.68-4-7L227.72,180l-7.56,4.36,3.48,6c.87,1.51,1.75,3,2.61,4.53a5.21,5.21,0,0,1-.45,6,5.48,5.48,0,0,1-4.41,2H212.9a1,1,0,0,1-1-1v-5.45Z" fill="#0c1457"></path></g><path d="M265.32,242.86H134.68a1,1,0,0,1,0-2H265.32a1,1,0,0,1,0,2Z" fill="#0c1457"></path></g></svg>