<svg xmlns="http://www.w3.org/2000/svg" xmlns:xlink="http://www.w3.org/1999/xlink" viewBox="0 0 400 300" width="406" height="306" class="illustration styles_illustrationTablet__1DWOa"><defs><linearGradient id="linear-gradient" x1="190.26" y1="246.91" x2="203.41" y2="236.24" gradientUnits="userSpaceOnUse"><stop offset="0" stop-opacity="0.03"></stop><stop offset="0.97" stop-color="#7f4a00"></stop></linearGradient><linearGradient id="linear-gradient-2" x1="103.25" y1="176.52" x2="83.08" y2="204.02" gradientUnits="userSpaceOnUse"><stop offset="0" stop-color="#7f3500"></stop><stop offset="0.04" stop-color="#843d0a"></stop><stop offset="1" stop-color="#fff"></stop></linearGradient></defs><title>HA</title><g style="isolation: isolate;"><g id="Layer_2" data-name="Layer 2"><path d="M203.88,284.65l170-100.49c5.41-3,10.06-8,4.78-11.3L208,74.5c-2.56-1.59-6.45-2.63-9.05-1.11L20.5,177c-5.42,3.14-6.38,11.92-1,15.07l161.93,92.44A22.61,22.61,0,0,0,203.88,284.65Z" fill="#f3ad00"></path><rect x="211.9" y="68.31" width="4.27" height="28.31" rx="1.87" ry="1.87" fill="#bc532a"></rect><path d="M224.58,74.1c-1-4.27-5.36-23.1-13.11-17.57-4,2.83-5.09,7.27-6.68,11.6a34.54,34.54,0,0,0-2.47,11.22c-.12,7.83,7.84,8.79,13.94,8.76,3.52,0,8.53-2.09,9.35-5.91.5-2.3-.35-5-.84-7.27Z" fill="#2c9135"></path><path d="M225,74.93l-.19-.83c-.87-3.78-4.39-18.94-10.56-18.56,1.83,8,4.53,16.43,3.09,24.61A18.7,18.7,0,0,1,214,88.06c.82,0,1.63.05,2.41,0,3.52,0,8.53-2.09,9.35-5.91C226.29,79.9,225.45,77.19,225,74.93Z" fill="#156819"></path><path d="M197.82,219c-6-4.11,13.56,9.34,8.27,4.27L169.67,243l23.55,13.21,43.62-23.59C234.42,230.74,200.31,220.7,197.82,219Z" opacity="0.32" fill="url(#linear-gradient)"></path><rect x="316.24" y="135.3" width="8.07" height="53.47" rx="1.87" ry="1.87" fill="#bc532a"></rect><path d="M340.19,146.24c-1.86-8.07-10.12-43.63-24.77-33.18-7.5,5.35-9.62,13.72-12.62,21.91-2.49,6.78-4.55,13.91-4.66,21.18-.24,14.8,14.81,16.6,26.33,16.55,6.64,0,16.11-4,17.66-11.16.94-4.35-.66-9.47-1.59-13.73Q340.37,147,340.19,146.24Z" fill="#2c9135"></path><path d="M340.89,147.81q-.17-.79-.35-1.57c-1.65-7.14-8.3-35.76-19.94-35.06,3.46,15.09,8.56,31,5.84,46.48a35.32,35.32,0,0,1-6.16,15c1.55.08,3.07.1,4.54.09,6.64,0,16.11-4,17.66-11.16C343.41,157.19,341.82,152.07,340.89,147.81Z" fill="#156819"></path><polygon points="262.32 160.16 212.53 129.74 161.36 160.16 212.53 188.75 262.32 160.16" fill="#06577a"></polygon><polygon points="161.36 160.16 142.86 128.08 195.29 97.25 212.53 129.74 161.36 160.16" fill="#68e1fd"></polygon><path d="M204.46,133.77s11.48-15.94,6.47-27c0,0-4.13-7.08-10-8.21,0,0,.59,15.12-5.27,13.19s0-15.82,0-15.82-6.14-8-12.87-7.75,0,14.14-4.68,11.84-.29-14.12-5.56-15.52a114.6,114.6,0,0,0-14.63-2.25s-5,13.79,0,15.76,12.29,2.64,8.78,5.68-13.46-.45-13.46-.45-.62,7.76,2.76,11.12,23.27-4.07,19.76,2.6-16.67,3.33-16.67,3.33,6.73,9.25,14.63,13.47S204.46,133.77,204.46,133.77Z" fill="#8ccc00"></path><path d="M162.32,88.39c2.13,1.74,4.29,3.51,6.44,5.3-.22-2.2-.49-4.38-.85-6.56-.19-1.15,1.64-1.65,1.84-.49q.72,4.38,1.1,8.8c5.65,4.77,11.25,9.75,16.47,15a62.91,62.91,0,0,0,.35-11.19c-.07-1.18,1.84-1.17,1.9,0a64.71,64.71,0,0,1-.56,12.93,127.91,127.91,0,0,1,9.37,10.88,35.59,35.59,0,0,0,6.52-14.63c.23-1.16,2.06-.67,1.84.49a36.83,36.83,0,0,1-7,15.51,1,1,0,0,1-.19.17c8.38,11.41,14.13,24.22,14.63,39.05,0,1.18-1.86,1.18-1.9,0-.47-14.29-6-26.66-14-37.7a76.19,76.19,0,0,1-23.59,2.21c-1.22-.07-1.23-1.91,0-1.83a74.67,74.67,0,0,0,22.41-2,134.42,134.42,0,0,0-13.26-14.81,1,1,0,0,1-.17,0c-4.44.38-8.89.76-13.35.91-2.89.1-5.65.35-8.28-.92-1.1-.53-.13-2.11,1-1.58,3.08,1.49,7.37.7,10.66.52,2.82-.16,5.64-.39,8.46-.63C175.27,101.42,168,95.41,161,89.68,160,88.92,161.39,87.63,162.32,88.39Z" fill="#06577a"></path><path d="M237.43,150s20.15.75,27.12-9.24c0,0,4-7.16,1.83-12.51,0,0-12.94,8.6-14.39,2.81s13.87-8.5,13.87-8.5,3.72-9.29-.12-14.61-12.39,7.6-12.89,2.56,12.22-7.82,10.62-12.85-5.89-13.08-5.89-13.08S242.83,87.92,243.77,93s4.29,11.39-.27,10.17S236.67,92,236.67,92s-7.14,3.67-8.26,8.21,16.07,16.7,8.34,17.43-11.88-11.74-11.88-11.74-4.49,10.43-4,19.11S237.43,150,237.43,150Z" fill="#8ccc00"></path><path d="M226.47,117.33c-.35-1.13,1.49-1.62,1.84-.49a32.46,32.46,0,0,0,12.22,16.89q3.24-8.64,5.92-17.46a54.77,54.77,0,0,1-11.17-15.17c-.53-1.06,1.12-2,1.64-.92a53.31,53.31,0,0,0,10.15,14c2-6.74,3.74-13.54,5.22-20.42.25-1.15,2.08-.67,1.84.49a281.5,281.5,0,0,1-7.5,27.83A45.9,45.9,0,0,0,257,118.86c1.1-.5,2.07,1.08,1,1.58a48,48,0,0,1-12,3.68h0c-2,6-4.26,12-6.67,17.87a47.58,47.58,0,0,0,16.56-3.51c1.11-.46,2.09,1.12,1,1.58a50.2,50.2,0,0,1-18.26,3.78q-4.59,11-10.09,21.67c-.55,1.05-2.19.13-1.64-.92a280.22,280.22,0,0,0,13-29.07h0A34.5,34.5,0,0,1,226.47,117.33Z" fill="#06577a"></path><path d="M201.77,173.67s8.29-7.87,6.67-14.64c0,0-1.56-4.45-4.76-5.69,0,0-1.34,8.64-4.45,6.95s1.75-9,1.75-9-2.6-5.18-6.45-5.72-1.57,8-4,6.24,1.4-8-1.43-9.38a65.55,65.55,0,0,0-8.05-2.78s-4.35,7.32-1.75,8.95,6.68,2.76,4.35,4.13-7.59-1.64-7.59-1.64-1.21,4.34.33,6.59,13.66.08,10.93,3.5-9.84.18-9.84.18,2.79,5.94,6.81,9.15S201.77,173.67,201.77,173.67Z" fill="#8ccc00"></path><path d="M186.84,147.71l5.24,8.45a15.69,15.69,0,0,0,1.66-2.64c.53-1.06,2.17-.14,1.64.92a17.38,17.38,0,0,1-2.19,3.34l-.07.06L198.8,167a3.69,3.69,0,0,0,1.17-2.2c.15-1.15,2.06-1.17,1.9,0a5.7,5.7,0,0,1-2.09,3.77l7.1,11.46c.63,1-1,1.94-1.64.92l-9.37-15.11a14.75,14.75,0,0,1-4.63-.67.92.92,0,0,1,.51-1.77,13.11,13.11,0,0,0,2.95.53l-9.49-15.31C184.57,147.62,186.21,146.7,186.84,147.71Z" fill="#06577a"></path><path d="M212.53,245.91V188.74l-51.17-28.58v56.7Z" fill="#68e1fd"></path><path d="M212.53,188.74l49.79-28.58s1.38,57.63,0,58.55-49.79,27.2-49.79,27.2Z" fill="#68e1fd"></path><path d="M212.53,188.74l49.79-28.58s1.38,57.63,0,58.55-49.79,27.2-49.79,27.2Z" fill="#9b4726" opacity="0.42"></path><polygon points="262.32 160.16 275.82 131.32 220.74 161.32 212.53 188.75 262.32 160.16" fill="#68e1fd"></polygon><g style="isolation: isolate;"><path d="M168.75,202.09a11.69,11.69,0,0,0,3.95,3.84c.5.28,1,.52,1.51.75l.5.23.71.32,8.93,4.13.26.14.16,10.52-.71-.32-3.14-1.43-2.36-1.09a10.49,10.49,0,0,1-3.33-2.31,6.21,6.21,0,0,1-1.34-2q-2.51-6.27-5-12.54Z" fill="#fff"></path><path d="M176.49,193.66a.67.67,0,0,1,.38.42q2,5.1,4.09,10.19c0,.09.06.19.13.39l-2.42-2.56-.69,1-2.3,3.36c-.11.17-.23.21-.47.1a21.31,21.31,0,0,1-3.44-1.9,10,10,0,0,1-3.41-4.52,3.29,3.29,0,0,1,0-3c.71-1.22,1.38-2.46,2.07-3.69,0-.07.07-.15.12-.24L168.11,190l.26.09,8.07,3.59Z" fill="#fff"></path></g><path d="M180.25,182.18l.3.15a9.36,9.36,0,0,1,3.15,3.37,24.46,24.46,0,0,1,2.37,4.85.53.53,0,0,1,0,.4q-2,2.85-3.92,5.69l-.09.07-8-8.93a2.29,2.29,0,0,1,.17-.25c1.24-1.67,2.48-3.36,3.75-5A1.71,1.71,0,0,1,180.25,182.18Z" fill="#fff"></path><path d="M191.5,186.86a7.75,7.75,0,0,1,3.82,4.27c.67,1.61,1.3,3.23,2,4.89l2.51-.35,0,.08-.27.39c-1.29,1.89-2.57,3.77-3.84,5.67-.12.19-.26.19-.5.08-2.56-1.2-5.12-2.38-7.68-3.58l-.36-.18,2.28-.66-.21-.54c-1.12-2.76-2.23-5.52-3.37-8.27a17.22,17.22,0,0,0-2.71-4.62c-.36-.42-.76-.8-1.15-1.18-.1-.11-.22-.2-.33-.3v-.09l3,1.35,1.48.67C187.93,185.28,189.72,186.05,191.5,186.86Z" fill="#fff"></path><g style="isolation: isolate;"><path d="M191.48,211.47c.07,1.14.13,2.17.2,3.22l.3.16c2.28,1,4.57,2.09,6.85,3.09a6.48,6.48,0,0,0,3.8.67,10.9,10.9,0,0,0,1.32-.43l-.07.17c-1.49,2.59-3,5.2-4.48,7.77-.77,1.32-2.05,1.54-3.71.83l-1.16-.52-2.32-1.07-.41-.19c0,1.1,0,2.17-.06,3.35-.1-.23-.16-.35-.21-.47l-3.9-9.62c-.09-.22-.15-.4,0-.56l3.78-6.24Z" fill="#fff"></path><path d="M201,204.69l1.34,3.5c.7,1.83,1.41,3.67,2.1,5.5a3.4,3.4,0,0,1-.14,3.23,2.51,2.51,0,0,1-2.27.94,9.94,9.94,0,0,1-4-1l-.65-.31a1,1,0,0,1-.36-.39q-1.88-4.66-3.75-9.33c0-.07,0-.14-.08-.24Z" fill="#fff"></path></g><path d="M69.89,196.53c3.57,2.7,7,5.64,10.47,8.43s13.49,10.89,17,13.49c1.15-.67,2.82-2.41,3.94-3.13,6.65-4.24,9.65-10.3,16-15C110.67,193,96.6,172.92,92,169.38c-6.45,5.81-22.63,15.11-30.61,21.32C64.15,192.73,67.15,194.45,69.89,196.53Z" opacity="0.46" fill="url(#linear-gradient-2)" style="mix-blend-mode: multiply;"></path><path d="M111.65,84.79a36.92,36.92,0,0,1-5.07-3.54c-1.72,2.9-.46,8,0,11.43.29-.21,1.74.36,2.07.26s.82-.29,1.22-.44,1.1-.39,1.64-.62a15.88,15.88,0,0,0,3.38-2,.89.89,0,0,0,.32-.36,1,1,0,0,0,0-.54,13.4,13.4,0,0,1-.19-2.7,1.35,1.35,0,0,0-.07-.59c-.2-.45-1.13-.3-1.54-.4A10.93,10.93,0,0,1,111.65,84.79Z" fill="#e6f1ff"></path><path d="M105.37,54.52c.84,1.95,1.26,4.05,2.47,5.82,2.3,3.33,6.69,9.09,4.28,13.37-1,1.77-2.93,2.08-4.76,2.37L100.6,60.23" fill="#ff6a26"></path><path d="M103.1,134l.12-.21c4.33-9.65,4.87-21,4.74-31.48-1,.2-6.4-3.27-6.79-2.25-.48,1.25-1.81,4.05-2.91,4.76s4.6,9,3.88,10.07c-.91,1.4-1.32,3.52-1.88,5.11-.5,1.4-1,2.81-1.49,4.21-.78,2.2-1.57,4.41-2.35,6.61s-2.2,6.69-.35,8.7A3.45,3.45,0,0,0,98,140.54a1.51,1.51,0,0,0,1.13-.16,2.21,2.21,0,0,0,.56-.69Z" fill="#edc624"></path><path d="M100.44,181.66a6.36,6.36,0,0,0,2.94-1.17c2.08-1.62,1.53-3.65.28-5.35a13.38,13.38,0,0,1-2.67-1.66c-4.35-3.47-7.28-10.41-7.28-10.41l-7.76-1.59-1.24,12,3.24,1.19.71-3.67,1.62,5.37S96.88,180.38,100.44,181.66Z" fill="#4d4d4d"></path><path d="M113.06,203.22a6.23,6.23,0,0,0,2.88-1.14c2-1.59,1.49-3.57.28-5.24a13.1,13.1,0,0,1-2.62-1.62c-4.26-3.4-7.13-10.19-7.13-10.19l-7.59-1.56-1.22,11.75,3.17,1.17.69-3.59L103.1,198A80.28,80.28,0,0,0,113.06,203.22Z" fill="#4d4d4d"></path><path d="M97.61,149.64a12.42,12.42,0,0,0-.74-2.74c-1.59-4.53-3-9.14-4.14-13.79l0,.1c-4.55,9-6.09,18.92-7.55,28.8a40.45,40.45,0,0,0,5.56,2.25,37.5,37.5,0,0,0,3.87,1.11c.18-.51.36-1,.51-1.53.57-1.81,1-3.68,1.37-5.54s.77-3.82,1-5.76A11.51,11.51,0,0,0,97.61,149.64Z" fill="#edc624"></path><path d="M105.33,105.5c-.55,1.1-3.29-2.41-4.51-2.26-4.09.49-6.81,1.77-10.17-.69-.65-.47-2.29-.77-2.77-1.38-4.4,11.94-3.31,31,2.54,42a28.88,28.88,0,0,1,2.53,6.75c1.85,7.56,1.23,15.71,2.47,23.37.73,4.52,2,9,2.82,13.48,2.93.32,7.16-.5,8.33-2.85a2.92,2.92,0,0,0-.15-.45,20,20,0,0,1-1-3.3c-.94-3.81-.94-23.76-.62-28.58.29-4.4-1-8.75-1.87-13-1.23-6.07-2.32-12.48-1.16-18.64" fill="#ffd93b"></path><path d="M107.73,93.42a59.83,59.83,0,0,1-.16-6.69c.22-4.86.69-9.72.82-14.58a12.62,12.62,0,0,0-.25-4c-.7-2.3-2.77-2.81-4.55-4-1.13-.79-1.8-.69-3.17-.48a38.54,38.54,0,0,0-4.49,1A39.56,39.56,0,0,0,87.5,68a12.76,12.76,0,0,0-3.41,2.53,6.08,6.08,0,0,0-1.58,3.38,5,5,0,0,1,.41.94c2.58,8.06,7.86,20.31,3.78,28.9.22.23.44.46.67.68A12.78,12.78,0,0,0,91.75,107c.34.13.69.24,1,.34a21.27,21.27,0,0,0,6.07.72,10.7,10.7,0,0,0,6.15-1.51,10.28,10.28,0,0,0,1.65-1.5l.33-.38a5.79,5.79,0,0,0,.89-1.37,6.63,6.63,0,0,0,.23-2.86C108.08,98.14,107.89,95.78,107.73,93.42Z" fill="#68e1fd"></path><path d="M92.17,66.47l0,.19a5.8,5.8,0,0,0,1,2.7A4.89,4.89,0,0,0,95,70.75a7.18,7.18,0,0,0,1.23.47c.23.07.47.13.71.18a6.37,6.37,0,0,0,1,.15,1.57,1.57,0,0,1,.79.12,2.07,2.07,0,0,1,.55.5l.1.13a27.76,27.76,0,0,1,2.18,3q.49.78.94,1.59c.14.28.29.54.43.82a3.64,3.64,0,0,1,.19.4c0,.07.07.16.11.24a.69.69,0,0,1,.08.2c0-.18,0-.37,0-.56s0-.22,0-.34a8.26,8.26,0,0,1,.11-.88c.08-.62.15-1.25.2-1.89a21.19,21.19,0,0,0,0-4.09,27.25,27.25,0,0,0-.86-4.31,16.57,16.57,0,0,1-.45-2c-.06-.47,0-1.12-.37-1.42s-1.33-13-2-8c-.23,1.62-2.09,5.93-3.39,4.91A17.83,17.83,0,0,1,94,57.42a15.9,15.9,0,0,0-.54,3.46,4.82,4.82,0,0,1-.85,2.85A3.57,3.57,0,0,0,92.17,66.47Z" fill="#ffdfcc"></path><path d="M104.56,48.17c.4,1.07,2.48,12.7-2.15,13.6s-9.31-3.53-9.31-3.53a5.27,5.27,0,0,1,.73-7.1C97.37,47.57,104.56,48.17,104.56,48.17Z" fill="#ffcfb3"></path><path d="M112.27,85.78a4.67,4.67,0,0,1,1.59-1.17q.55-.28,1.1-.54a8.28,8.28,0,0,1,1.38-.52,1.72,1.72,0,0,1,1.49.16,1.63,1.63,0,0,1,.54,1.15,10.84,10.84,0,0,1,0,1.32,10.24,10.24,0,0,0,.54,2.92,2.64,2.64,0,0,1-.07,1.56,1.92,1.92,0,0,1-.95.89,3.11,3.11,0,0,1-.58.2,6.09,6.09,0,0,1-.68.12,6.34,6.34,0,0,1-3.71-.48,2,2,0,0,1-.95-2.15.62.62,0,0,0,0-.21.64.64,0,0,0-.1-.19A2.73,2.73,0,0,1,112.27,85.78Z" fill="#ffbf99"></path><path d="M107.34,70.73c-.06.19-.23.2-.42.31a3.49,3.49,0,0,0-1.17,1.21,16.62,16.62,0,0,0-1.26,3q-.3.83-.63,1.66l-.32.8c-.06.14-.34.61-.3.75a4.82,4.82,0,0,1-.11-1.19,37.29,37.29,0,0,1,.26-4.55,6.68,6.68,0,0,1,.52-2.15c.46-1,1.35-1.7,1.54-2.76a2.39,2.39,0,0,1,.25-1,.2.2,0,0,1,.13-.1.21.21,0,0,1,.15.08,4.54,4.54,0,0,1,1.36,3,5.5,5.5,0,0,1,0,.8A.42.42,0,0,1,107.34,70.73Z" fill="#b3d5ff"></path><path d="M100.9,75.39a3.25,3.25,0,0,0-2.53-.62,3.43,3.43,0,0,0-2,1.14,24.38,24.38,0,0,1-2.08-2,10.67,10.67,0,0,1-2.64-8.55c0,.13.23.47.29.57a4.57,4.57,0,0,0,.39.55,4.45,4.45,0,0,0,1,.89c.37.24.65.55,1,.83a15.26,15.26,0,0,0,1.32.93,30.32,30.32,0,0,1,4.74,3.15,8.6,8.6,0,0,1,2.87,6.11c0,.05,0,.1,0,.16A9.26,9.26,0,0,0,100.9,75.39Z" fill="#b3d5ff"></path><path d="M92.17,66.47l0,.19a12.38,12.38,0,0,0,1,1.46,21.74,21.74,0,0,0,3.07,3.1c.23.07.47.13.71.18a6.37,6.37,0,0,0,1,.15,1.57,1.57,0,0,1,.79.12,2.07,2.07,0,0,1,.55.5l.1.13a27.76,27.76,0,0,1,2.18,3q.49.78.94,1.59c.14.28.29.54.43.82a3.64,3.64,0,0,1,.19.4c0,.07.07.16.11.24a.69.69,0,0,1,.08.2c0-.18,0-.37,0-.56a16.19,16.19,0,0,0-1.73-5.51c-1.21-2.38-2.75-4.54-4-6.89a7.13,7.13,0,0,1-1-3.22,21,21,0,0,0,0-2.4A17.83,17.83,0,0,1,94,57.42a15.9,15.9,0,0,0-.54,3.46,4.82,4.82,0,0,1-.85,2.85A3.57,3.57,0,0,0,92.17,66.47Z" fill="#ffcfb3"></path><path d="M105.33,70.44a1.68,1.68,0,0,1,1.88-.47,10.37,10.37,0,0,0-1.4-4.14,5.31,5.31,0,0,0-1-1.25A22.76,22.76,0,0,0,102,62.77a.9.9,0,0,0-.39-.17,11.15,11.15,0,0,1,.84,3.27q.18,1.71.32,3.42.11,1.36.19,2.72c0,.79,0,1.58.06,2.36q.13,2.14.4,4.26a9.8,9.8,0,0,1,.37-2.68,32.58,32.58,0,0,1,.61-3.32,4.91,4.91,0,0,1,.89-2.08Z" fill="#e6f1ff"></path><path d="M97.93,73.35q-.71.68-1.35,1.42c-1.19-1.51-2.39-3-3.5-4.58a10.5,10.5,0,0,1-2-4.12,5.19,5.19,0,0,1,.28-2.71A6.8,6.8,0,0,1,92,62.11a3.43,3.43,0,0,1,.8-1,.83.83,0,0,1,.66-.14q-.09.75-.21,1.5a3.8,3.8,0,0,0-.12,1.19,4.3,4.3,0,0,0,1,2.06c1.49,1.84,3.18,3.48,4.74,5.26a25.14,25.14,0,0,1,2.63,3.49,22.64,22.64,0,0,1,1.84,4.12q-.76-1.32-1.58-2.61a11.87,11.87,0,0,0-1.47-1.93,5.11,5.11,0,0,0-1.2-.94C98.58,72.86,98.39,72.91,97.93,73.35Z" fill="#e6f1ff"></path><path d="M76.53,120.32a8.13,8.13,0,0,0,.6,3.08,3.45,3.45,0,0,0,.93,1.68,4.23,4.23,0,0,1,.33.28,2.27,2.27,0,0,1,.32.53,6.46,6.46,0,0,0,.85,1.3,2,2,0,0,0,1.8.89l.06,0a.24.24,0,0,0,.11-.06.42.42,0,0,0,.08-.15,1.12,1.12,0,0,0-.24-.88,3.93,3.93,0,0,1-.51-.78,2.33,2.33,0,0,1-.08-1.12c0-.44.1-.88.17-1.32a6.61,6.61,0,0,1,.18-.74c.06-.14.13-.28.2-.4s.14-.23.26-.19.12.26.13.4l0,.49a11.64,11.64,0,0,0,.1,1.2,3.63,3.63,0,0,0,.74,1.8.58.58,0,0,0,.19.17.45.45,0,0,0,.53-.12,1.1,1.1,0,0,0,.25-.54,5,5,0,0,0,0-1.64c-.12-1.06-.24-2.12-.37-3.19a15.14,15.14,0,0,0-.79-3,2,2,0,0,0-.1-.26,15.13,15.13,0,0,1-.6-1.46c-.12-.41-.12-.88-.24-1.27,0,.18-.6.36-.71.36a8.28,8.28,0,0,1-1.35-.13,3.14,3.14,0,0,1-1.48-.64c-.36,1.42-.74,2.84-1.1,4.26A8.16,8.16,0,0,0,76.53,120.32Z" fill="#ffdfcc"></path><path d="M76.53,120.32a8.13,8.13,0,0,0,.6,3.08,3.45,3.45,0,0,0,.93,1.68,4.23,4.23,0,0,1,.33.28,2.27,2.27,0,0,1,.32.53,6.46,6.46,0,0,0,.85,1.3,2,2,0,0,0,1.8.89l.06,0a8.09,8.09,0,0,1-1.57-1.63,10.06,10.06,0,0,1-.78-1.51,15.31,15.31,0,0,1-.86-2.31,7.56,7.56,0,0,1-.07-3.34.74.74,0,0,1,.14-.37c.17-.19.46-.16.71-.14a4.27,4.27,0,0,0,3.3-1,15.13,15.13,0,0,1-.6-1.46c-.12-.41-.12-.88-.24-1.27,0,.18-.6.36-.71.36a8.28,8.28,0,0,1-1.35-.13,3.14,3.14,0,0,1-1.48-.64c-.36,1.42-.74,2.84-1.1,4.26A8.16,8.16,0,0,0,76.53,120.32Z" fill="#ffcfb3"></path><path d="M85,98.42A144.67,144.67,0,0,1,89.75,80.8c.85-2.5,2.13-5,.52-7.47a7.53,7.53,0,0,0-3.55-3.12c-4.09-1.26-5.28,5.93-6.07,8.53a93.73,93.73,0,0,0-3.16,14.92c-.22,1.86-.45,3.74-.52,5.62s-.15,4-.07,6c.07,1.74.43,8.46.43,10.08a1.84,1.84,0,0,0,.11.62.71.71,0,0,0,.14.2,1.24,1.24,0,0,0,.29.28,4.48,4.48,0,0,0,1.78.93,2.62,2.62,0,0,0,2-.24.86.86,0,0,0,.31-.26c.23-.31.16-.84.25-1.22.12-.57.18-1.19.27-1.77.18-1.2.35-2.38.52-3.58C83.51,106.33,84.17,102.35,85,98.42Z" fill="#68e1fd"></path><path d="M93.6,43.52a16.07,16.07,0,0,0-7.52,8.11A55.7,55.7,0,0,0,83.65,61c-1.08,5.26-1.71,7.55-1.14,12.93.5,4.76,4.13,7.75,7.68,7.74a16.93,16.93,0,0,0,4.19-.36c2.72-.7,4.36-3.05,5.4-5.52a6.07,6.07,0,0,0,.62-3.21,4.67,4.67,0,0,0-1.52-2.64c-2.3-2.14-4.95-3-5.15-6.58a17.52,17.52,0,0,1,1.77-8,7,7,0,0,1,5.91-4.32c3.75-.36,6.16-5,2.49-7.34A10.14,10.14,0,0,0,93.6,43.52Z" fill="#ff6a26"></path><path d="M96.37,56a5.12,5.12,0,0,0-1.17-2.87,1.22,1.22,0,0,0-1.94.17c-1,1.79.59,3.73,2.34,4a.53.53,0,0,0,.52-.82A.53.53,0,0,0,96.37,56Z" fill="#ffcfb3"></path><path d="M106.61,97.26a20.27,20.27,0,0,1,1.56-4.14c.83-1.62,3.52-3.52,3.08-5.46-.53-2.39-.22-4.51-1.45-6s-2.63-4-1.36-4.55,1,2.55,2.05,2.11,1-3.15,1-3.15,1.35-2.18,1.88,0a16.18,16.18,0,0,1,.53,3.41s1.86-5.33,3.08-3.41A4,4,0,0,1,117,80s2-3.08,2.3-.88-1,7.05-1,7.05-2.63,3.22,1.39,5.77c6.81,4.32,10.2,11.74,8.24,19.87s-12.68,10.62-19,5.51c-5-4-3.79-11.92-2.94-17.46A26.08,26.08,0,0,1,106.61,97.26Z" fill="#4d4d4d"></path><path d="M119.15,84.07q-.3.52-.62,1a1.29,1.29,0,0,1,.74.91,1.35,1.35,0,0,1-.3,1.15.19.19,0,0,0-.07.13c0,.05.05.09.09.13a.83.83,0,0,1,.2.73,2.82,2.82,0,0,1-.27.74.36.36,0,0,0,0,.12.42.42,0,0,0,.06.2,1.55,1.55,0,0,1,.09,1.1,1.31,1.31,0,0,1-.7.82,2.29,2.29,0,0,1-.87.14l-1.42,0a1.53,1.53,0,0,1-.83-.13.38.38,0,0,1-.17-.17.44.44,0,0,1,0-.21,1.44,1.44,0,0,1,.33-.81.54.54,0,0,1-.62-.39,1,1,0,0,1,.14-.79,2.68,2.68,0,0,1,.57-.58.51.51,0,0,1-.27-.56,1.57,1.57,0,0,1,1-1.11,4.21,4.21,0,0,0,1.31-.75c-.31-.11-.67-.27-.73-.6a.89.89,0,0,1,.07-.45A3.35,3.35,0,0,1,118,83a1.26,1.26,0,0,1,.94,0C119.42,83.25,119.38,83.67,119.15,84.07Z" fill="#ffcfb3"></path><path d="M112,86.91a2.47,2.47,0,0,1-.44.3.57.57,0,0,0-.29.44.47.47,0,0,1,0,.13.09.09,0,0,1-.1.07l-.06,0a1.48,1.48,0,0,1-.29-.47,3.81,3.81,0,0,1-.3-1.61.51.51,0,0,1,.23-.47,1.76,1.76,0,0,1,1.19-.14c.38.06.74.23.63.69A2,2,0,0,1,112,86.91Z" fill="#ffcfb3"></path></g></g></svg>