<svg xmlns="http://www.w3.org/2000/svg" viewBox="0 0 400 300" width="406" height="306" class="illustration styles_illustrationTablet__1DWOa"><g id="_245_recycling_outline" data-name="#245_recycling_outline"><path d="M169.75,84H230.5a5.58,5.58,0,0,1,5.58,5.58V216a0,0,0,0,1,0,0H164.17a0,0,0,0,1,0,0V89.57A5.58,5.58,0,0,1,169.75,84Z" fill="#68e1fd"></path><path d="M236.08,217H164.17a1,1,0,0,1-1-1V89.57A6.59,6.59,0,0,1,169.75,83H230.5a6.59,6.59,0,0,1,6.58,6.58V216A1,1,0,0,1,236.08,217Zm-70.91-2h69.91V89.57A4.59,4.59,0,0,0,230.5,85H169.75a4.59,4.59,0,0,0-4.58,4.58Z" fill="#0c1457"></path><polygon points="164.17 93.46 155.2 93.46 164.17 145.49 164.17 93.46" fill="#68e1fd"></polygon><path d="M164.17,146.49a1,1,0,0,1-1-.83l-9-52a1,1,0,0,1,1-1.17h9a1,1,0,0,1,1,1v52a1,1,0,0,1-.92,1Zm-7.78-52,6.78,39.34V94.46Z" fill="#0c1457"></path><polygon points="236.08 93.46 245.05 93.46 236.08 145.49 236.08 93.46" fill="#68e1fd"></polygon><path d="M236.08,146.49H236a1,1,0,0,1-.92-1v-52a1,1,0,0,1,1-1h9a1,1,0,0,1,1,1.17l-9,52A1,1,0,0,1,236.08,146.49Zm1-52V133.8l6.78-39.34Z" fill="#0c1457"></path><path d="M206.11,152.32l-3.5-2.13-4.19-2.51,7.75-4.65v3.07l.26,0c2.7,0,5.4,0,8.09,0a4.11,4.11,0,0,0,1.3-.25,1.6,1.6,0,0,0,1.08-2.21,13.61,13.61,0,0,0-1.08-2.16c-1-1.76-2.1-3.49-3.18-5.28l2.64-1.59c.84,1.39,1.68,2.76,2.49,4.14a34.21,34.21,0,0,1,1.85,3.35,4.83,4.83,0,0,1-.09,4.45,4.7,4.7,0,0,1-3.18,2.36,11.44,11.44,0,0,1-2.48.29c-2.39,0-4.79,0-7.18,0h-.5v3.09Z" fill="#fff"></path><path d="M215.28,134.62c.84,1.39,1.68,2.76,2.49,4.14a34.21,34.21,0,0,1,1.85,3.35,4.83,4.83,0,0,1-.09,4.45,4.7,4.7,0,0,1-3.18,2.36,11.44,11.44,0,0,1-2.48.29c-1,0-2.09,0-3.13,0h-4.55v3.09h-.08l-3.5-2.13-4.19-2.51,7.75-4.65v3.07l.26,0h8.09a4.11,4.11,0,0,0,1.3-.25,1.6,1.6,0,0,0,1.08-2.21,13.61,13.61,0,0,0-1.08-2.16c-1-1.76-2.1-3.49-3.18-5.28l2.64-1.59m0-2a1.89,1.89,0,0,0-1,.29l-2.64,1.59a2.05,2.05,0,0,0-.91,1.23,2,2,0,0,0,.23,1.52l.93,1.53c.78,1.27,1.51,2.48,2.24,3.72a12.61,12.61,0,0,1,.8,1.55,1.48,1.48,0,0,1-.39.06h-6.34V143a2,2,0,0,0-1-1.74,2,2,0,0,0-1-.26,2,2,0,0,0-1,.28l-4.31,2.59L197.39,146a2,2,0,0,0,0,3.42l1.32.8,2.87,1.72,2.42,1.47,1.07.65a2,2,0,0,0,1,.29h.08a2,2,0,0,0,2-2v-1.09h2.55c1,0,2.11,0,3.17,0a13.4,13.4,0,0,0,2.9-.34,6.72,6.72,0,0,0,4.48-3.35,6.81,6.81,0,0,0,.16-6.22,30.75,30.75,0,0,0-1.57-2.91l-.38-.64c-.57-1-1.16-1.94-1.75-2.92l-.75-1.24a2,2,0,0,0-1.24-.91,1.91,1.91,0,0,0-.48-.06Z" fill="#0c1457"></path><path d="M209.72,125.07l2.58-1.54v9.23l-7.69-4.62,2.46-1.48L206,124.75c-1.28-2.15-2.55-4.31-3.84-6.46a4.61,4.61,0,0,0-.46-.63,2,2,0,0,0-3.36,0c-.62.85-1.15,1.77-1.69,2.68-1.09,1.83-2.17,3.68-3.27,5.54l-2.63-1.55a2.39,2.39,0,0,1,.13-.28l4.26-7.21a6.48,6.48,0,0,1,3.14-2.89,4.57,4.57,0,0,1,4.93.89,8.9,8.9,0,0,1,1.7,2C206.51,119.59,208.09,122.32,209.72,125.07Z" fill="#fff"></path><path d="M200.05,113.63a4.67,4.67,0,0,1,3.11,1.25,8.9,8.9,0,0,1,1.7,2c1.65,2.69,3.23,5.42,4.86,8.17l2.58-1.54v9.23l-7.69-4.62,2.46-1.48L206,124.75c-1.28-2.15-2.55-4.31-3.84-6.46a4.61,4.61,0,0,0-.46-.63,2.23,2.23,0,0,0-1.69-.92,2.11,2.11,0,0,0-1.67,1c-.62.85-1.15,1.77-1.69,2.68-1.09,1.83-2.17,3.68-3.27,5.54l-2.63-1.55a2.39,2.39,0,0,1,.13-.28l4.26-7.21a6.48,6.48,0,0,1,3.14-2.89,5.08,5.08,0,0,1,1.82-.36m0-2h0a7,7,0,0,0-2.55.5,8.36,8.36,0,0,0-4.12,3.73q-1.68,2.81-3.34,5.63l-.93,1.59a3.75,3.75,0,0,0-.21.4,2.06,2.06,0,0,0,.78,2.61l.54.31,2.09,1.24a2,2,0,0,0,1,.28,2,2,0,0,0,1.72-1l1-1.63c.77-1.31,1.53-2.61,2.31-3.9l.26-.45c.44-.74.86-1.44,1.32-2.07l.08-.1a.92.92,0,0,1,.13.14c.11.13.22.28.29.38l3.16,5.34.67,1.12.11.2-.45.27-.31.19a2,2,0,0,0,0,3.43l1.23.73,6.46,3.88a2,2,0,0,0,3-1.71v-9.23a2,2,0,0,0-1-1.74,2.06,2.06,0,0,0-1-.26,2,2,0,0,0-1,.28l-.85.51-.31-.53c-1.15-2-2.34-4-3.54-5.93a10.72,10.72,0,0,0-2.1-2.5,6.74,6.74,0,0,0-4.42-1.73Z" fill="#0c1457"></path><path d="M195.33,146.12v3.08l-.42,0c-3,0-6,0-8.95,0a6.77,6.77,0,0,1-4.29-1.23,4.48,4.48,0,0,1-1.76-4.2,9,9,0,0,1,1.55-3.85l3.76-6.36-2.36-1.43,7.67-4.6v9.21l-2.66-1.6-1.12,1.89c-1.09,1.86-2.19,3.71-3.27,5.57a4.13,4.13,0,0,0-.46,1.16,1.66,1.66,0,0,0,1.37,2.17,6.92,6.92,0,0,0,1.51.17h9.43Z" fill="#fff"></path><path d="M190.53,127.55v9.21l-2.66-1.6-1.12,1.89c-1.09,1.86-2.19,3.71-3.27,5.57a4.13,4.13,0,0,0-.46,1.16,1.66,1.66,0,0,0,1.37,2.17,6.92,6.92,0,0,0,1.51.17h9.43v3.08l-.42,0H186a6.77,6.77,0,0,1-4.29-1.23,4.5,4.5,0,0,1-1.76-4.2,9,9,0,0,1,1.55-3.85l3.76-6.36-2.36-1.43,7.67-4.6m0-2a2,2,0,0,0-1,.28l-3.12,1.87-4.56,2.74a2,2,0,0,0,0,3.42l.67.41-.12.21-2.63,4.44a10.92,10.92,0,0,0-1.83,4.69,6.51,6.51,0,0,0,2.53,6,8.73,8.73,0,0,0,5.51,1.65h9.49a2,2,0,0,0,1.89-2v-3.08a2,2,0,0,0-2-2h-9.42A4.74,4.74,0,0,1,185,144a2.6,2.6,0,0,1,.19-.42q1.23-2.12,2.48-4.23l.78-1.32.09-.16.95.57a2,2,0,0,0,1,.28,2.05,2.05,0,0,0,1-.25,2,2,0,0,0,1-1.75v-9.21a2,2,0,0,0-1-1.74,2,2,0,0,0-1-.26Z" fill="#0c1457"></path><path d="M84.36,162.68h79.8a0,0,0,0,1,0,0V175a0,0,0,0,1,0,0H84.36a6.15,6.15,0,0,1-6.15-6.15v0A6.15,6.15,0,0,1,84.36,162.68Z" fill="#68e1fd"></path><path d="M164.17,176H84.36a7.15,7.15,0,0,1,0-14.3h79.81a1,1,0,0,1,1,1V175A1,1,0,0,1,164.17,176Zm-79.81-12.3a5.15,5.15,0,0,0,0,10.3h78.81v-10.3Z" fill="#0c1457"></path><rect x="86.99" y="174.98" width="77.17" height="41.02" fill="#0c1457"></rect><path d="M164.17,217H87a1,1,0,0,1-1-1V175a1,1,0,0,1,1-1h77.18a1,1,0,0,1,1,1v41A1,1,0,0,1,164.17,217ZM88,215h75.18V176H88Z" fill="#0c1457"></path><path d="M242.24,162.68h79.55a0,0,0,0,1,0,0V175a0,0,0,0,1,0,0H242.24a6.15,6.15,0,0,1-6.15-6.15v0a6.15,6.15,0,0,1,6.15-6.15Z" transform="translate(557.88 337.66) rotate(-180)" fill="#68e1fd"></path><path d="M315.64,176H236.08a1,1,0,0,1-1-1v-12.3a1,1,0,0,1,1-1h79.56a7.15,7.15,0,1,1,0,14.3Zm-78.56-2h78.56a5.15,5.15,0,1,0,0-10.3H237.08Z" fill="#0c1457"></path><rect x="236.08" y="174.98" width="76.92" height="41.02" transform="translate(549.09 390.99) rotate(-180)" fill="#0c1457"></rect><path d="M313,217H236.08a1,1,0,0,1-1-1V175a1,1,0,0,1,1-1H313a1,1,0,0,1,1,1v41A1,1,0,0,1,313,217Zm-75.93-2H312V176H237.08Z" fill="#0c1457"></path><circle cx="86.31" cy="168.83" r="3.25" fill="#68e1fd"></circle><path d="M86.31,173.08a4.25,4.25,0,1,1,4.25-4.25A4.26,4.26,0,0,1,86.31,173.08Zm0-6.5a2.25,2.25,0,1,0,2.25,2.25A2.25,2.25,0,0,0,86.31,166.58Z" fill="#0c1457"></path><circle cx="313.69" cy="168.83" r="3.25" fill="#68e1fd"></circle><path d="M313.69,173.08a4.25,4.25,0,1,1,4.25-4.25A4.26,4.26,0,0,1,313.69,173.08Zm0-6.5a2.25,2.25,0,1,0,2.25,2.25A2.25,2.25,0,0,0,313.69,166.58Z" fill="#0c1457"></path><polygon points="131.17 128.72 144.78 128.72 140.85 135.65 135.1 135.65 131.17 128.72" fill="#63d470"></polygon><path d="M140.85,136.65H135.1a1,1,0,0,1-.87-.51l-3.93-6.93a1,1,0,0,1,.87-1.49h13.6a1,1,0,0,1,.87.5,1,1,0,0,1,0,1l-3.92,6.93A1,1,0,0,1,140.85,136.65Zm-5.17-2h4.59l2.79-4.93H132.89Z" fill="#0c1457"></path><path d="M154,152.7c0,7.11-7.19,10-16.07,10s-16.07-2.87-16.07-10,7.2-15.78,16.07-15.78S154,145.58,154,152.7Z" fill="#63d470"></path><path d="M138,163.68c-10.85,0-17.07-4-17.07-11,0-7.6,7.62-16.78,17.07-16.78S155,145.1,155,152.7C155,159.68,148.82,163.68,138,163.68Zm0-25.76c-6.78,0-15.07,6.82-15.07,14.78s10.54,9,15.07,9,15.07-.88,15.07-9S144.76,137.92,138,137.92Z" fill="#0c1457"></path><rect x="133.42" y="134.07" width="9.11" height="3.16" rx="1.58" fill="#0c1457"></rect><path d="M141,138.23H135a2.58,2.58,0,0,1,0-5.16H141a2.58,2.58,0,1,1,0,5.16ZM135,135.07a.58.58,0,1,0,0,1.16H141a.58.58,0,1,0,0-1.16Z" fill="#0c1457"></path><path d="M147.36,149.49a1,1,0,0,1-.93-.64,24.2,24.2,0,0,0-6.84-9.61L137,147.3a1,1,0,0,1-1.25.65,1,1,0,0,1-.66-1.26l3-9.42a1,1,0,0,1,1.49-.53,25.08,25.08,0,0,1,8.69,11.38,1,1,0,0,1-.58,1.3A1.1,1.1,0,0,1,147.36,149.49Z" fill="#0c1457"></path><polygon points="93.04 128.72 106.65 128.72 102.72 135.65 96.97 135.65 93.04 128.72" fill="#63d470"></polygon><path d="M102.72,136.65H97a1,1,0,0,1-.87-.51l-3.93-6.93a1,1,0,0,1,.87-1.49h13.61a1,1,0,0,1,.87,1.49l-3.93,6.93A1,1,0,0,1,102.72,136.65Zm-5.17-2h4.59l2.79-4.93H94.76Z" fill="#0c1457"></path><path d="M115.92,152.7c0,7.11-7.2,10-16.07,10s-16.08-2.87-16.08-10,7.2-15.78,16.08-15.78S115.92,145.58,115.92,152.7Z" fill="#63d470"></path><path d="M99.84,163.68c-10.84,0-17.07-4-17.07-11,0-7.6,7.62-16.78,17.07-16.78s17.08,9.18,17.08,16.78C116.92,159.68,110.69,163.68,99.84,163.68Zm0-25.76c-6.78,0-15.07,6.82-15.07,14.78s10.54,9,15.07,9,15.08-.88,15.08-9S106.63,137.92,99.84,137.92Z" fill="#0c1457"></path><rect x="95.29" y="134.07" width="9.11" height="3.16" rx="1.58" fill="#0c1457"></rect><path d="M102.82,138.23H96.87a2.58,2.58,0,0,1,0-5.16h5.95a2.58,2.58,0,0,1,0,5.16Zm-5.95-3.16a.58.58,0,1,0,0,1.16h5.95a.58.58,0,0,0,0-1.16Z" fill="#0c1457"></path><path d="M109.23,149.49a1,1,0,0,1-.93-.64,24.1,24.1,0,0,0-6.84-9.61L98.9,147.3a1,1,0,1,1-1.9-.61l3-9.42a1,1,0,0,1,1.49-.53,25,25,0,0,1,8.69,11.38,1,1,0,0,1-.57,1.3A1.21,1.21,0,0,1,109.23,149.49Z" fill="#0c1457"></path><rect x="253.74" y="134.19" width="21.28" height="27.41" fill="#ffbc0e"></rect><path d="M275,162.6H253.74a1,1,0,0,1-1-1V134.19a1,1,0,0,1,1-1H275a1,1,0,0,1,1,1V161.6A1,1,0,0,1,275,162.6Zm-20.28-2H274V135.19H254.74Z" fill="#0c1457"></path><rect x="251.44" y="129.74" width="25.9" height="4" rx="1.53" fill="#ffbc0e"></rect><path d="M275.8,134.74H253a2.53,2.53,0,0,1-2.53-2.53v-.94a2.53,2.53,0,0,1,2.53-2.53H275.8a2.53,2.53,0,0,1,2.53,2.53v.94A2.53,2.53,0,0,1,275.8,134.74Zm-22.83-4a.53.53,0,0,0-.53.53v.94a.53.53,0,0,0,.53.53H275.8a.53.53,0,0,0,.53-.53v-.94a.53.53,0,0,0-.53-.53Z" fill="#0c1457"></path><rect x="251.44" y="143.93" width="25.9" height="4" rx="1.53" fill="#ffbc0e"></rect><path d="M275.8,148.94H253a2.54,2.54,0,0,1-2.53-2.54v-.93a2.54,2.54,0,0,1,2.53-2.54H275.8a2.54,2.54,0,0,1,2.53,2.54v.93A2.54,2.54,0,0,1,275.8,148.94Zm-22.83-4a.53.53,0,0,0-.53.54v.93a.53.53,0,0,0,.53.54H275.8a.54.54,0,0,0,.53-.54v-.93a.54.54,0,0,0-.53-.54Z" fill="#0c1457"></path><rect x="251.69" y="158.06" width="25.9" height="4" rx="1.53" fill="#ffbc0e"></rect><path d="M276.06,163.06H253.22a2.54,2.54,0,0,1-2.53-2.54v-.93a2.53,2.53,0,0,1,2.53-2.53h22.84a2.53,2.53,0,0,1,2.53,2.53v.93A2.54,2.54,0,0,1,276.06,163.06Zm-22.84-4a.53.53,0,0,0-.53.53v.93a.54.54,0,0,0,.53.54h22.84a.54.54,0,0,0,.53-.54v-.93a.53.53,0,0,0-.53-.53Z" fill="#0c1457"></path><circle cx="264.38" cy="145.27" r="6.75" fill="#fff"></circle><path d="M264.38,153a7.76,7.76,0,1,1,7.75-7.76A7.77,7.77,0,0,1,264.38,153Zm0-13.51a5.76,5.76,0,1,0,5.75,5.75A5.76,5.76,0,0,0,264.38,139.52Z" fill="#0c1457"></path><path d="M267.25,146.72c0,2.76-2.87,2.7-2.87,2.7s-2.86.06-2.86-2.7,2.86-6.45,2.86-6.45S267.25,144,267.25,146.72Z" fill="#0c1457"></path><rect x="286.32" y="134.19" width="21.28" height="27.41" fill="#ffbc0e"></rect><path d="M307.6,162.6H286.32a1,1,0,0,1-1-1V134.19a1,1,0,0,1,1-1H307.6a1,1,0,0,1,1,1V161.6A1,1,0,0,1,307.6,162.6Zm-20.28-2H306.6V135.19H287.32Z" fill="#0c1457"></path><rect x="284.01" y="129.74" width="25.9" height="4" rx="1.53" fill="#ffbc0e"></rect><path d="M308.38,134.74H285.54a2.54,2.54,0,0,1-2.53-2.53v-.94a2.53,2.53,0,0,1,2.53-2.53h22.84a2.53,2.53,0,0,1,2.53,2.53v.94A2.54,2.54,0,0,1,308.38,134.74Zm-22.84-4a.53.53,0,0,0-.53.53v.94a.53.53,0,0,0,.53.53h22.84a.53.53,0,0,0,.53-.53v-.94a.53.53,0,0,0-.53-.53Z" fill="#0c1457"></path><rect x="284.01" y="143.93" width="25.9" height="4" rx="1.53" fill="#ffbc0e"></rect><path d="M308.38,148.94H285.54A2.54,2.54,0,0,1,283,146.4v-.93a2.54,2.54,0,0,1,2.53-2.54h22.84a2.54,2.54,0,0,1,2.53,2.54v.93A2.54,2.54,0,0,1,308.38,148.94Zm-22.84-4a.54.54,0,0,0-.53.54v.93a.54.54,0,0,0,.53.54h22.84a.54.54,0,0,0,.53-.54v-.93a.54.54,0,0,0-.53-.54Z" fill="#0c1457"></path><rect x="284.27" y="158.06" width="25.9" height="4" rx="1.53" fill="#ffbc0e"></rect><path d="M308.63,163.06H285.8a2.54,2.54,0,0,1-2.53-2.54v-.93a2.53,2.53,0,0,1,2.53-2.53h22.83a2.54,2.54,0,0,1,2.54,2.53v.93A2.54,2.54,0,0,1,308.63,163.06Zm-22.83-4a.53.53,0,0,0-.53.53v.93a.54.54,0,0,0,.53.54h22.83a.54.54,0,0,0,.54-.54v-.93a.53.53,0,0,0-.54-.53Z" fill="#0c1457"></path><circle cx="296.96" cy="145.27" r="6.75" fill="#fff"></circle><path d="M297,153a7.76,7.76,0,1,1,7.75-7.76A7.77,7.77,0,0,1,297,153Zm0-13.51a5.76,5.76,0,1,0,5.75,5.75A5.76,5.76,0,0,0,297,139.52Z" fill="#0c1457"></path><path d="M299.82,146.72c0,2.76-2.86,2.7-2.86,2.7s-2.86.06-2.86-2.7,2.86-6.45,2.86-6.45S299.82,144,299.82,146.72Z" fill="#0c1457"></path><rect x="176.02" y="166.26" width="48.2" height="38.01" rx="5.08" fill="#68e1fd"></rect><path d="M219.15,205.27H181.1a6.09,6.09,0,0,1-6.08-6.08V171.34a6.09,6.09,0,0,1,6.08-6.08h38.05a6.09,6.09,0,0,1,6.08,6.08v27.85A6.09,6.09,0,0,1,219.15,205.27Zm-38.05-38a4.08,4.08,0,0,0-4.08,4.08v27.85a4.08,4.08,0,0,0,4.08,4.08h38.05a4.08,4.08,0,0,0,4.08-4.08V171.34a4.08,4.08,0,0,0-4.08-4.08Z" fill="#0c1457"></path><path d="M128,107.94H106.65a1,1,0,0,1,0-2H128a1,1,0,1,1,0,2Z" fill="#dfeaef"></path><path d="M125.54,112.21a1,1,0,0,1-.7-1.71l3.56-3.56-3.56-3.56a1,1,0,0,1,1.41-1.41l4.27,4.26a1,1,0,0,1,0,1.42l-4.27,4.27A1,1,0,0,1,125.54,112.21Z" fill="#dfeaef"></path><path d="M288.16,107.94H266.82a1,1,0,0,1,0-2h21.34a1,1,0,0,1,0,2Z" fill="#dfeaef"></path><path d="M285.72,112.21a1,1,0,0,1-.71-.29,1,1,0,0,1,0-1.42l3.56-3.56L285,103.38a1,1,0,0,1,0-1.41,1,1,0,0,1,1.42,0l4.27,4.26a1,1,0,0,1,0,1.42l-4.27,4.27A1,1,0,0,1,285.72,112.21Z" fill="#dfeaef"></path></g></svg>