<svg width="29" height="29" viewBox="0 0 29 29" fill="none" xmlns="http://www.w3.org/2000/svg">
<path fill-rule="evenodd" clip-rule="evenodd" d="M9.51559 14.6315C7.2264 11.4772 4.12086 9.44144 2.8329 8.68313C2.79955 8.66381 2.76547 8.6485 2.73067 8.63756C2.45952 8.55116 2.1572 8.71558 2.09847 9.01125C1.45866 12.2618 1.14365 15.6935 1.85886 18.9604C2.60416 22.3633 4.55332 25.0929 7.63856 26.6809C5.95185 24.1577 4.81396 21.5354 4.07047 18.598C3.98166 18.2466 4.34742 18.3472 4.4511 18.5685C5.5676 20.9681 6.89399 23.0604 8.65936 25.0385C8.79059 25.1855 8.92689 25.3258 9.06355 25.4629C8.35559 23.1271 7.81582 19.5361 9.1781 15.5283C9.28069 15.2265 9.39487 14.9279 9.51559 14.6315ZM13.8199 26.9864C16.5205 26.1913 19.0649 24.6036 21.0536 22.6134C24.1316 19.5339 25.9227 15.4106 26.8054 11.1837C27.4068 8.30398 27.637 5.32106 27.4854 2.38152C27.4702 2.08293 27.2698 1.85289 27.0142 1.77195C26.8706 1.72602 26.7097 1.72747 26.5542 1.79018C5.60929 10.2326 9.09907 22.9652 10.6484 26.6492C10.8449 26.479 11.0609 26.2821 11.2984 26.0633C11.9915 25.3998 12.6556 24.706 13.2932 23.9882C17.964 18.7311 21.5557 12.6187 24.9552 6.4855C25.0059 6.39362 25.1161 6.36227 25.2035 6.41076C25.2861 6.45706 25.3188 6.55914 25.2811 6.64445C24.0457 9.45639 22.2542 14.0336 19.9469 18.0329C17.1466 22.8865 13.8891 26.966 13.8199 26.9864Z" fill="#FFAF1D"/>
</svg>
