<svg width="160" height="48" viewBox="0 0 160 48" fill="none" xmlns="http://www.w3.org/2000/svg">
<g clip-path="url(#clip0_81_4)">
<g clip-path="url(#clip1_81_4)">
<path fill-rule="evenodd" clip-rule="evenodd" d="M12.3703 24.4251C8.85935 19.4275 4.09638 16.2021 2.12103 15.0006C2.06988 14.97 2.01761 14.9457 1.96424 14.9284C1.54838 14.7915 1.08471 15.052 0.994635 15.5205C0.0133563 20.6706 -0.469775 26.1077 0.627144 31.2837C1.77021 36.6752 4.75964 41 9.49148 43.516C6.90457 39.5183 5.15939 35.3635 4.0191 30.7096C3.88289 30.1528 4.44385 30.3122 4.60287 30.6628C6.31525 34.4647 8.34954 37.7797 11.0571 40.9138C11.2584 41.1467 11.4674 41.369 11.677 41.5862C10.5912 37.8854 9.76335 32.1959 11.8527 25.846C12.01 25.3678 12.1851 24.8947 12.3703 24.4251ZM18.9718 44C23.1137 42.7403 27.0161 40.2247 30.0662 37.0715C34.7869 32.1924 37.5339 25.6595 38.8877 18.9625C39.8101 14.3999 40.1631 9.67379 39.9306 5.01643C39.9073 4.54335 39.6 4.17888 39.208 4.05064C38.9877 3.97787 38.7409 3.98016 38.5024 4.07952C6.37919 17.4556 11.7315 37.6289 14.1077 43.4657C14.4091 43.1961 14.7403 42.8841 15.1046 42.5375C16.1676 41.4862 17.1861 40.387 18.164 39.2497C25.3276 30.9204 30.8362 21.2361 36.0501 11.5187C36.1278 11.3731 36.2968 11.3235 36.4309 11.4003C36.5576 11.4736 36.6077 11.6354 36.5499 11.7705C34.6552 16.2257 31.9075 23.4778 28.3688 29.8142C24.074 37.5042 19.078 43.9677 18.9718 44Z" fill="#FFAF1D"/>
</g>
<path d="M53.1401 38.2H50.9001V9.72H53.1401V38.2Z" fill="#0C1457"/>
<path d="M69.1281 14.456V22.808H77.6081V24.664H69.1281V33.144H78.5681V35H66.8881V12.6H78.5681V14.456H69.1281ZM81.9579 26.232C81.9579 24.44 82.3205 22.872 83.0459 21.528C83.7712 20.1627 84.7632 19.1173 86.0219 18.392C87.3019 17.6453 88.7419 17.272 90.3419 17.272C91.8779 17.272 93.2645 17.6453 94.5019 18.392C95.7392 19.1387 96.6459 20.1093 97.2219 21.304V11.32H99.4619V35H97.2219V31.096C96.6885 32.312 95.8139 33.3147 94.5979 34.104C93.3819 34.872 91.9525 35.256 90.3099 35.256C88.7099 35.256 87.2699 34.8827 85.9899 34.136C84.7312 33.3893 83.7392 32.3333 83.0139 30.968C82.3099 29.6027 81.9579 28.024 81.9579 26.232ZM97.2219 26.264C97.2219 24.856 96.9339 23.6187 96.3579 22.552C95.7819 21.4853 94.9925 20.664 93.9899 20.088C93.0085 19.512 91.9205 19.224 90.7259 19.224C89.4885 19.224 88.3792 19.5013 87.3979 20.056C86.4165 20.6107 85.6379 21.4213 85.0619 22.488C84.5072 23.5333 84.2299 24.7813 84.2299 26.232C84.2299 27.6613 84.5072 28.92 85.0619 30.008C85.6379 31.0747 86.4165 31.896 87.3979 32.472C88.3792 33.0267 89.4885 33.304 90.7259 33.304C91.9205 33.304 93.0085 33.016 93.9899 32.44C94.9925 31.864 95.7819 31.0427 96.3579 29.976C96.9339 28.9093 97.2219 27.672 97.2219 26.264ZM120.384 25.368C120.384 26.136 120.362 26.7227 120.32 27.128H105.824C105.888 28.4507 106.208 29.5813 106.784 30.52C107.36 31.4587 108.117 32.1733 109.056 32.664C109.994 33.1333 111.018 33.368 112.128 33.368C113.578 33.368 114.794 33.016 115.776 32.312C116.778 31.608 117.44 30.6587 117.76 29.464H120.128C119.701 31.1707 118.784 32.568 117.376 33.656C115.989 34.7227 114.24 35.256 112.128 35.256C110.485 35.256 109.013 34.8933 107.712 34.168C106.41 33.4213 105.386 32.376 104.64 31.032C103.914 29.6667 103.552 28.0773 103.552 26.264C103.552 24.4507 103.914 22.8613 104.64 21.496C105.365 20.1307 106.378 19.0853 107.68 18.36C108.981 17.6347 110.464 17.272 112.128 17.272C113.792 17.272 115.242 17.6347 116.48 18.36C117.738 19.0853 118.698 20.0667 119.36 21.304C120.042 22.52 120.384 23.8747 120.384 25.368ZM118.112 25.304C118.133 24.0027 117.866 22.8933 117.312 21.976C116.778 21.0587 116.042 20.3653 115.104 19.896C114.165 19.4267 113.141 19.192 112.032 19.192C110.368 19.192 108.949 19.7253 107.776 20.792C106.602 21.8587 105.952 23.3627 105.824 25.304H118.112ZM132.674 17.208C134.765 17.208 136.471 17.8587 137.794 19.16C139.117 20.44 139.778 22.3067 139.778 24.76V35H137.57V25.016C137.57 23.1173 137.09 21.6667 136.13 20.664C135.191 19.6613 133.901 19.16 132.258 19.16C130.573 19.16 129.229 19.6933 128.226 20.76C127.223 21.8267 126.722 23.3947 126.722 25.464V35H124.482V17.528H126.722V20.504C127.277 19.4373 128.077 18.6267 129.122 18.072C130.167 17.496 131.351 17.208 132.674 17.208ZM150.94 32.824L156.828 17.528H159.196L152.188 35H149.66L142.652 17.528H145.052L150.94 32.824Z" fill="#0C1457"/>
</g>
<defs>
<clipPath id="clip0_81_4">
<rect width="160" height="48" fill="white"/>
</clipPath>
<clipPath id="clip1_81_4">
<rect width="40" height="40" fill="white" transform="translate(0 4)"/>
</clipPath>
</defs>
</svg>
