<svg width="160" height="48" viewBox="0 0 160 48" fill="none" xmlns="http://www.w3.org/2000/svg">
<g clip-path="url(#clip0_92_14)">
<mask id="mask0_92_14" style="mask-type:luminance" maskUnits="userSpaceOnUse" x="0" y="0" width="160" height="48">
<path d="M160 0H0V48H160V0Z" fill="white"/>
</mask>
<g mask="url(#mask0_92_14)">
<mask id="mask1_92_14" style="mask-type:luminance" maskUnits="userSpaceOnUse" x="0" y="4" width="40" height="40">
<path d="M40 4H0V44H40V4Z" fill="white"/>
</mask>
<g mask="url(#mask1_92_14)">
<path fill-rule="evenodd" clip-rule="evenodd" d="M12.3703 24.4251C8.85935 19.4275 4.09638 16.2021 2.12103 15.0006C2.06988 14.97 2.01761 14.9457 1.96424 14.9284C1.54838 14.7915 1.08471 15.052 0.994635 15.5205C0.0133561 20.6706 -0.469775 26.1077 0.627144 31.2837C1.77021 36.6752 4.75964 41 9.49148 43.516C6.90457 39.5183 5.15939 35.3635 4.0191 30.7096C3.88289 30.1528 4.44385 30.3122 4.60287 30.6628C6.31525 34.4647 8.34954 37.7797 11.0571 40.9138C11.2584 41.1467 11.4674 41.369 11.677 41.5862C10.5912 37.8854 9.76335 32.1959 11.8527 25.846C12.01 25.3678 12.1851 24.8947 12.3703 24.4251ZM18.9718 44C23.1137 42.7403 27.0161 40.2247 30.0662 37.0715C34.7869 32.1924 37.5339 25.6595 38.8877 18.9625C39.8101 14.3999 40.1631 9.67379 39.9306 5.01643C39.9073 4.54335 39.6 4.17888 39.208 4.05064C38.9877 3.97787 38.7409 3.98016 38.5024 4.07952C6.37919 17.4556 11.7315 37.6289 14.1077 43.4657C14.4091 43.1961 14.7403 42.8841 15.1046 42.5375C16.1676 41.4862 17.1861 40.387 18.164 39.2497C25.3276 30.9204 30.8362 21.2361 36.0501 11.5187C36.1278 11.3731 36.2968 11.3235 36.4309 11.4003C36.5576 11.4736 36.6077 11.6354 36.5499 11.7705C34.6552 16.2257 31.9075 23.4778 28.3688 29.8142C24.074 37.5042 19.078 43.9677 18.9718 44Z" fill="white"/>
</g>
<path d="M53.1401 38.2H50.9001V9.71997H53.1401V38.2Z" fill="white"/>
<path d="M69.1281 14.4561V22.8081H77.6081V24.6641H69.1281V33.1441H78.5681V35.0001H66.8881V12.6001H78.5681V14.4561H69.1281ZM81.9579 26.2321C81.9579 24.4401 82.3205 22.8721 83.0459 21.5281C83.7712 20.1628 84.7632 19.1174 86.0219 18.3921C87.3019 17.6454 88.7419 17.2721 90.3419 17.2721C91.8779 17.2721 93.2645 17.6454 94.5019 18.3921C95.7392 19.1388 96.6459 20.1094 97.2219 21.3041V11.3201H99.4619V35.0001H97.2219V31.0961C96.6885 32.3121 95.8139 33.3148 94.5979 34.1041C93.3819 34.8721 91.9525 35.2561 90.3099 35.2561C88.7099 35.2561 87.2699 34.8828 85.9899 34.1361C84.7312 33.3894 83.7392 32.3334 83.0139 30.9681C82.3099 29.6028 81.9579 28.0241 81.9579 26.2321ZM97.2219 26.2641C97.2219 24.8561 96.9339 23.6188 96.3579 22.5521C95.7819 21.4854 94.9925 20.6641 93.9899 20.0881C93.0085 19.5121 91.9205 19.2241 90.7259 19.2241C89.4885 19.2241 88.3792 19.5014 87.3979 20.0561C86.4165 20.6108 85.6379 21.4214 85.0619 22.4881C84.5072 23.5334 84.2299 24.7814 84.2299 26.2321C84.2299 27.6614 84.5072 28.9201 85.0619 30.0081C85.6379 31.0748 86.4165 31.8961 87.3979 32.4721C88.3792 33.0268 89.4885 33.3041 90.7259 33.3041C91.9205 33.3041 93.0085 33.0161 93.9899 32.4401C94.9925 31.8641 95.7819 31.0428 96.3579 29.9761C96.9339 28.9094 97.2219 27.6721 97.2219 26.2641ZM120.384 25.3681C120.384 26.1361 120.362 26.7228 120.32 27.1281H105.824C105.888 28.4508 106.208 29.5814 106.784 30.5201C107.36 31.4588 108.117 32.1734 109.056 32.6641C109.994 33.1334 111.018 33.3681 112.128 33.3681C113.578 33.3681 114.794 33.0161 115.776 32.3121C116.778 31.6081 117.44 30.6588 117.76 29.4641H120.128C119.701 31.1708 118.784 32.5681 117.376 33.6561C115.989 34.7228 114.24 35.2561 112.128 35.2561C110.485 35.2561 109.013 34.8934 107.712 34.1681C106.41 33.4214 105.386 32.3761 104.64 31.0321C103.914 29.6668 103.552 28.0774 103.552 26.2641C103.552 24.4508 103.914 22.8614 104.64 21.4961C105.365 20.1308 106.378 19.0854 107.68 18.3601C108.981 17.6348 110.464 17.2721 112.128 17.2721C113.792 17.2721 115.242 17.6348 116.48 18.3601C117.738 19.0854 118.698 20.0668 119.36 21.3041C120.042 22.5201 120.384 23.8748 120.384 25.3681ZM118.112 25.3041C118.133 24.0028 117.866 22.8934 117.312 21.9761C116.778 21.0588 116.042 20.3654 115.104 19.8961C114.165 19.4268 113.141 19.1921 112.032 19.1921C110.368 19.1921 108.949 19.7254 107.776 20.7921C106.602 21.8588 105.952 23.3628 105.824 25.3041H118.112ZM132.674 17.2081C134.765 17.2081 136.471 17.8588 137.794 19.1601C139.117 20.4401 139.778 22.3068 139.778 24.7601V35.0001H137.57V25.0161C137.57 23.1174 137.09 21.6668 136.13 20.6641C135.191 19.6614 133.901 19.1601 132.258 19.1601C130.573 19.1601 129.229 19.6934 128.226 20.7601C127.223 21.8268 126.722 23.3948 126.722 25.4641V35.0001H124.482V17.5281H126.722V20.5041C127.277 19.4374 128.077 18.6268 129.122 18.0721C130.167 17.4961 131.351 17.2081 132.674 17.2081ZM150.94 32.8241L156.828 17.5281H159.196L152.188 35.0001H149.66L142.652 17.5281H145.052L150.94 32.8241Z" fill="white"/>
</g>
</g>
<defs>
<clipPath id="clip0_92_14">
<rect width="160" height="48" fill="white"/>
</clipPath>
</defs>
</svg>
