<svg width="100%" height="100%" id="svg" viewBox="0 0 1440 460" xmlns="http://www.w3.org/2000/svg" class="transition duration-300 ease-in-out delay-150"><path d="M 0,600 C 0,600 0,200 0,200 C 69.26315789473685,236.73684210526315 138.5263157894737,273.4736842105263 238,265 C 337.4736842105263,256.5263157894737 467.1578947368422,202.84210526315792 580,177 C 692.8421052631578,151.15789473684208 788.8421052631578,153.15789473684208 876,167 C 963.1578947368422,180.84210526315792 1041.4736842105262,206.5263157894737 1134,214 C 1226.5263157894738,221.4736842105263 1333.2631578947369,210.73684210526315 1440,200 C 1440,200 1440,600 1440,600 Z" stroke="none" stroke-width="0" fill="#0c1457" fill-opacity="0.53" class="transition-all duration-300 ease-in-out delay-150 path-0"></path><path d="M 0,600 C 0,600 0,400 0,400 C 94.45933014354068,395.1483253588517 188.91866028708137,390.29665071770336 275,377 C 361.08133971291863,363.70334928229664 438.78468899521533,341.9617224880383 530,359 C 621.2153110047847,376.0382775119617 725.9425837320574,431.85645933014354 822,439 C 918.0574162679426,446.14354066985646 1005.4449760765551,404.6124401913876 1107,390 C 1208.5550239234449,375.3875598086124 1324.2775119617224,387.6937799043062 1440,400 C 1440,400 1440,600 1440,600 Z" stroke="none" stroke-width="0" fill="#0c1457" fill-opacity="1" class="transition-all duration-300 ease-in-out delay-150 path-1"></path></svg>